<svg xmlns="http://www.w3.org/2000/svg" xmlns:xlink="http://www.w3.org/1999/xlink" width="80" height="80" viewBox="0 0 80 80"><defs><style>.a{fill:#fff;stroke:#707070;}.b{clip-path:url(#a);}.c{fill:#221e1f;}.d{fill:#fcc607;}.e{fill:#009867;}.f{fill:#ee1c23;}</style><clipPath id="a"><rect class="a" width="80" height="80" transform="translate(1131 2846)"/></clipPath></defs><g class="b" transform="translate(-1131 -2846)"><g transform="translate(1131.897 2846)"><path class="c" d="M11.721,38.99S5.544,46,2.6,60.887c0,0-.491,3.681.914,3.845S5.748,62.8,6.239,61.514c.2-.545,9.285-21.543,7.635-22.688,0,0,5.672-.314,6.286,3.545s-5.345,6.831-7.09,7.185-1.718,1.05-1.609,1.145.491.6,2.754.259,7.472-1.923,9.735-6.736a6.656,6.656,0,0,0-1.882-7.894c-4.077-3.354-10.049-1.663-12.285-.2S8.339,39.181,8.557,39.4s.75.518,3.163-.409M31.21,34.83s.068-.832.668-.914,1.036.082,1.159,1.855-.736,4.377-2.154,6.872a25.27,25.27,0,0,0-1.827,4.24s.423,1.173-.941,1.159-2.209-2.182-1.991-3.9.722-3.572,5.085-9.313m11.568,1.016a25.324,25.324,0,0,1-5.672.559s-3.041-.4-2.209-2.141a1.278,1.278,0,0,1,1.2-.668,13.172,13.172,0,0,0,3.409-.054,53.954,53.954,0,0,1,6.517-.286,1.357,1.357,0,0,1,1.063,1.9c-.4,1.227-3.477,4.608-3.477,4.608L38.7,44.408a21.81,21.81,0,0,1,7.172.014,31.465,31.465,0,0,0,6.913.736,17.458,17.458,0,0,0,2.931-.627.722.722,0,0,1,.941.218c.164.259.1.641-.545,1.036a11.708,11.708,0,0,1-7.049,1.691c-4.186-.15-6.626-.123-6.626-.123a32.736,32.736,0,0,0-7.281.682s-2.032,1.077-2.9.082-.2-2.29.245-3.013c.655-1.036,4.009-4.131,10.281-9.258"/><path class="c" d="M48.158,32.419s-.382-.968.2-1.513a1.454,1.454,0,0,1,.8-.355c.273,0,.464.109.873.164.368.068,7.145-.914,7.145-.914a4.157,4.157,0,0,1,3.245.859c.968,1.023-.791,2.9-.791,2.9s-5.863,6.013-6.068,6.081c0,0,1.65.178,2.114.232a23.612,23.612,0,0,0,4.036.368c.913-.136,1.118-.164,1.227-.191s.7-.2.845.273-.423,1.214-2.059,1.936a13.242,13.242,0,0,1-5.085.75c-1.009-.068-3.859-.191-4.895-.109s-2.155.368-2.277.368c-.15.014-1.2-.054-.6-1.691a7.209,7.209,0,0,1,2.291-2.85l6.763-5.522s-5.74.723-6.681.327a2,2,0,0,1-1.091-1.118m-31.4,29.1c1.418-.259,3.818-.559,3.818-.559s4.881-11.14,6.913-11.208S25.5,59.923,25.5,59.923l5.972-1.268a40.472,40.472,0,0,1,2.713-7.077c1.309-2.209,1.745-2.29,1.963-2.29a.841.841,0,0,1,.927,1.063c-.164,1.023-1.214,7.1-1.214,7.1l1.65-.613a.46.46,0,0,1,.6.164c.218.368-.382.832-.382.832L35.4,59.35S33.787,66.358,33.16,67.3a2.6,2.6,0,0,1-2.141,1.432c-.736-.054-1.473-.791-1.4-2.5a23.29,23.29,0,0,1,.791-4.322s-5.427,2.168-6.258,2.25c0,0-1.813,7.294-2.359,8.235A2.862,2.862,0,0,1,19.2,73.844c-1.241-.15-1.418-1.868-1.432-2.891a31.829,31.829,0,0,1,1.4-6.285s-2.8-.3-3.272-.968a1.642,1.642,0,0,1-.3-1.241c.123-.777,1.159-.94,1.159-.94"/><path class="d" d="M51.9,65.483a95.952,95.952,0,0,1,13.075-3.068c4.922-.573,7.172-.723,7.172-.723a.5.5,0,0,1,.6.437c.1.5-.668.613-.668.613a267.033,267.033,0,0,0-26.928,9.585c-1.186.477-16.484,7.2-16.484,7.2a7.872,7.872,0,0,1-3.409.409c-1.541-.273-1.841-.982-1.963-1.677,0,0-.45-1.568,1.773-2.318,2.045-.7,7.526-3.15,7.526-3.15L47,67.079l4.895-1.6Z"/><path class="c" d="M71.135,34.4a3.749,3.749,0,0,0-.164.818s-1.923,1.1-2.8,1.445a5.42,5.42,0,0,1-2,.286c1.1-3.749,5.808-4.486,5.808-4.486s-.723,1.622-.845,1.936m7.022,2.359c-.068-.273-1.554-.45-2.1-.5a1.367,1.367,0,0,1-1.254-.94c-.218-.6.572-2.5.927-3.831s-.368-1.813-.791-1.854a1.708,1.708,0,0,0-.927.341C68.544,28.824,62.354,34.6,62,37.168c-.259,1.868.273,3.191,1.827,3.518a7.148,7.148,0,0,0,4.159-.709,21.679,21.679,0,0,0,3.6-2.3c.231.586,1.527,1.172,2.713,1.214a8.776,8.776,0,0,0,3.6-1.145.874.874,0,0,0,.259-.982"/><path class="e" d="M36.373,24.353s.627-.314.886-.041.109.682-.1,1.05a47.778,47.778,0,0,1-4.049,5.672,1.854,1.854,0,0,1-2.168.218c-.7-.4-.6-1.732-.355-2.29a7.385,7.385,0,0,1,2.754-3.177,13.8,13.8,0,0,1,3.027-1.432"/><path class="f" d="M73.813,18.478,72.6,17.632c-3.436-2.686-17.371-8.208-17.371-8.208s-.982-2.209-1.541-3.286A23.966,23.966,0,0,0,49.652.644.525.525,0,0,0,49.42.575L49.311.6,45.221,1.693,35.84,4.407S29.4,6.425,29.1,6.534a1.9,1.9,0,0,0-.518.327s-2.2,3.777-2.372,4.213S23.5,16.392,23.5,16.392L17.229,19.35c-.573.314-.573.286-4.909,2.9L7.071,25.922s-4.977,3.763-5.386,4.145a1.532,1.532,0,0,0-.437,1.868c.423.7,1.5.573,1.5.573L7.78,31.185l10.1-2.563,12.026-2.509,1.65-.286a8.081,8.081,0,0,1,1.227-.941,14.991,14.991,0,0,1,3.232-1.527,1.735,1.735,0,0,1,2,.218,1.474,1.474,0,0,1,.423,1.1l.682-.123h.027L52.011,22.9s8.208-.832,10.962-.914a41.171,41.171,0,0,0,9.858-1.2c.273-.123,1.172-.436,1.35-1.172a1.1,1.1,0,0,0-.368-1.132"/><path class="c" d="M56.22,53.762s-3.5.014-3.586-1.3,1.4-1.6,2.073-1.254a2.415,2.415,0,0,0,.75.027c.368-.054,2.2-.382,2.2-.382s2.754-4.459,3.259-4.922a1,1,0,0,1,1.418-.15c.872.6.245,1.977.245,1.977L61.428,50.08l8.249-1.541s.5-.123.6.286c.082.341-.791.722-.791.722s-8.494,3.409-9.394,3.559l-2.345,6.34-1.922,5.7a.8.8,0,0,1-.709.436c-.477-.014-.709-.845-.723-1.05a25.8,25.8,0,0,1,.15-5.222A41.4,41.4,0,0,1,56.22,53.8M39.363,56.177a2.043,2.043,0,0,0-.845-.913c-.573-.3-.668-.587-.4-.886a3.35,3.35,0,0,1,2.536-.368A3.019,3.019,0,0,1,42.7,56.573a9.565,9.565,0,0,1-.668,4.172s5.1-3.177,6.136-4.909a16.037,16.037,0,0,1,1.854-3.054s1.186-.9,1.691.45a16.888,16.888,0,0,1-.341,3.2,37.939,37.939,0,0,0-.341,6.409.822.822,0,0,1-.218,1.268,1.52,1.52,0,0,1-1.323-.45A4.841,4.841,0,0,1,47.435,59.5s-2.44,3.518-4.5,4.445S39.99,64.972,38.7,64s-.4-3.913-.4-3.913,1.023-3.081,1.036-3.15a1.358,1.358,0,0,0,.027-.763M23.557,15.158c-.014.054-.123.068-.218.027s-.232-.164-.123-.45,2.5-5.236,4.063-7.881a1.136,1.136,0,0,1,.763-.641c.6-.191,15.925-4.581,15.925-4.581L47.935.609a.94.94,0,0,1,1.023.654A.919.919,0,0,1,48.3,2.423c-.15.068-9.367,2.959-9.367,2.959L28.574,7.822l-5.018,7.335M51.474.2a.147.147,0,0,1,.068-.191c.123-.054.218.123.218.123s1.05,1.923,1.186,2.345,2.386,6.64,2.386,6.64,7.636,2.222,8.031,2.332a121.745,121.745,0,0,1,12.9,5.195s.4.191.437.218a.94.94,0,0,1,.273,1.009.982.982,0,0,1-.927.614,10.754,10.754,0,0,1-1.132-.382S59.737,12.65,55.8,11.709c0,0-1.977-.655-2.264-1.282a36.279,36.279,0,0,1-.777-3.94Zm18.09,18.967c-.286-1.486-2.8-1.568-3.163-1.527s-25.4,3.327-27.065,3.6c-9.053,1.486-24.6,5.386-24.6,5.386L5.209,29.436c.177-.355,7.8-5.74,8.249-6.081s9.285-5.768,9.285-5.768.709-.273.477-.709a.462.462,0,0,0-.559-.273s-.545.232-2.127.9a87.045,87.045,0,0,0-7.99,4.268C8.658,23.928.5,30.541.5,30.541a1.229,1.229,0,0,0-.382,1.527,1.5,1.5,0,0,0,1.513.873l11.835-3.19c.873-.4,16.321-3.545,16.321-3.545l1.677-.3a8.051,8.051,0,0,1,1.322-1.022,14.708,14.708,0,0,1,3.218-1.527,1.755,1.755,0,0,1,2,.218,1.489,1.489,0,0,1,.436,1.159l.682-.109.014-.014c8.794-1.513,28.155-2.8,28.155-2.8.709-.11,2.632-.75,2.264-2.646m2.769,46.4h.177c.2,0,.4-.082.4-.273,0-.136-.109-.273-.4-.273a.621.621,0,0,0-.178.014v.532Zm0,.873h-.245V64.875a1.9,1.9,0,0,1,.437-.041.837.837,0,0,1,.491.109.4.4,0,0,1,.15.327.373.373,0,0,1-.314.382v.014c.136.027.232.15.273.4a.9.9,0,0,0,.1.382H72.96a.923.923,0,0,1-.109-.4.3.3,0,0,0-.341-.286h-.178v.682Zm.259-2.018a1.14,1.14,0,1,0,.014,0Zm.014-.218a1.4,1.4,0,1,1-.014,0h.014Z"/></g></g></svg>