<svg xmlns="http://www.w3.org/2000/svg" xmlns:xlink="http://www.w3.org/1999/xlink" width="80" height="80" viewBox="0 0 80 80"><defs><style>.a,.c{fill:#fff;}.a{stroke:#707070;}.b{clip-path:url(#a);}.c,.d{fill-rule:evenodd;}</style><clipPath id="a"><rect class="a" width="80" height="80" transform="translate(643 2846)"/></clipPath></defs><g class="b" transform="translate(-643 -2846)"><g transform="translate(643 2846)"><path class="c" d="M0,0H80V80H0Z"/><path class="d" d="M7.2,61.187a14.038,14.038,0,0,1,.86-1.333l-.817.129c-1.032,1.634-2.709,3.353-4.772,3.353-.731,0-1.2-.344-1.2-.817a.529.529,0,0,1,.473-.559.418.418,0,0,1,.473.43.4.4,0,0,1-.387.43c-.086,0-.172,0-.172.086,0,.215.473.3.817.3,1.849,0,3.053-1.978,3.956-3.138a5.258,5.258,0,0,0-2.451,1.2l-.086-.043a4.881,4.881,0,0,1,2.623-1.29A15.6,15.6,0,0,1,10.119,56.2v-.043a2.841,2.841,0,0,1-1.5.559c-.86,0-1.161-.86-2.236-.86A2.359,2.359,0,0,0,4.1,57.919a.924.924,0,0,0,.946.946,3.013,3.013,0,0,0,2.365-1.849H7.5a2.568,2.568,0,0,1-2.322,1.978,1.076,1.076,0,0,1-1.2-1.161c0-1.161,1.763-2.364,2.838-2.364.946,0,1.5.945,2.364.945a3.069,3.069,0,0,0,1.591-.773l.043.129a14.429,14.429,0,0,0-3.483,4.085l.817-.129a9.987,9.987,0,0,1,1.247-1.461l.043.043a6.185,6.185,0,0,0-1.075,1.419l.817-.129c.645-.859,3.354-4,4.472-4a.307.307,0,0,1,.344.3c0,1.333-2.752,3.483-4.084,3.7-.473.645-1.72,2.193-1.72,3.01,0,.43.387.6.731.6A3.846,3.846,0,0,0,12.1,60.5c0-.344-.172-.559-.473-.559-.688,0-1.5.816-1.892,1.29H9.6c.473-.559,1.247-1.419,2.021-1.419.43,0,.6.3.6.73,0,1.29-2.021,2.795-3.182,2.795a.982.982,0,0,1-1.118-1.118,5.544,5.544,0,0,1,1.161-2.494l-.774.129a6.4,6.4,0,0,0-.774,1.333H7.2Zm6.449-5.46c-.731,0-3.268,3.268-3.655,3.74,1.419-.3,3.869-2.579,3.869-3.611,0-.086-.085-.129-.215-.129Zm3.138,5.632a1.577,1.577,0,0,1-.817.344.743.743,0,0,1-.559-.215c-1.032,1.29-1.892,1.849-2.752,1.849a.66.66,0,0,1-.645-.645c0-1.032,1.978-2.924,3.138-2.924a.4.4,0,0,1,.43.259.159.159,0,0,1,.129-.043c.172,0,.215.129.215.3A1.9,1.9,0,0,1,15.45,61.4a.826.826,0,0,0,.516.172,1.484,1.484,0,0,0,.774-.344l.043.129ZM15.45,60.112a.242.242,0,0,0-.258-.215c-.473,0-1.333,1.032-2.494,2.364a.926.926,0,0,0-.3.645c0,.129.086.3.387.3A4.022,4.022,0,0,0,15.279,61.4a1.184,1.184,0,0,1-.129-.559.962.962,0,0,1,.3-.731Z"/><path class="d" d="M20.051,57.747h.688l-1.376,1.461h.688l-.086.129h-.688l-2.666,2.881c-.473.515-.688.73-.688.86,0,.086.129.129.258.129.3,0,.946-.3,2.709-1.849l.086.086c-1.5,1.333-2.365,1.892-2.838,1.892-.258,0-.387-.172-.387-.43,0-.3.172-.687.774-1.375l2.021-2.193h-.688l.086-.129h.731l1.376-1.462Z"/><path class="d" d="M22.286,61.53c-.989.86-2.279,1.806-3.44,1.806-.344,0-.688-.129-.688-.516,0-1.161,2.107-2.966,3.268-2.966a.477.477,0,0,1,.473.473c0,.989-1.892,1.548-2.666,1.548-.645.688-.731.946-.731,1.075,0,.216.215.259.43.259.946,0,2.064-.774,3.353-1.806v.128Zm-.86-1.548c-.43,0-.989.515-2.107,1.762,1.161,0,2.322-.989,2.322-1.548A.2.2,0,0,0,21.426,59.983Z"/><path class="d" d="M25.21,61.659c-1.634,1.461-2.451,1.677-2.923,1.677-.43,0-.6-.258-.6-.645,0-1.29,5.417-7.051,6.535-7.051a.361.361,0,0,1,.387.387c0,1.247-3.138,3.268-4.772,4.342a22.352,22.352,0,0,0-1.892,2.579.248.248,0,0,0,.258.259,4.511,4.511,0,0,0,2.666-1.419Zm3.053-5.89c-.43,0-1.935,1.419-4.213,4.3h.043c2.064-1.462,4.385-2.967,4.385-4.042,0-.172-.086-.258-.215-.258Zm7.266,4.213c-.688.645-1.677,1.762-2.451,2.579-.172.215-.258.344-.258.43,0,.173.129.216.258.216.645,0,2.279-1.29,2.794-1.849l.129.086c-.559.559-2.149,1.892-2.966,1.892a.443.443,0,0,1-.473-.43.725.725,0,0,1,.129-.43h-.043a2.658,2.658,0,0,1-1.591.86.633.633,0,0,1-.688-.688c0-1.333,2.365-2.794,3.225-2.794.344,0,.645.172.645.43a.635.635,0,0,1-.043.258h.043l.559-.559h.731Zm-1.805,0c-.473,0-.86.215-2.666,2.107-.43.473-.43.687-.43.816,0,.173.129.3.43.3.989,0,3.053-2.279,3.053-2.838a.384.384,0,0,0-.387-.387Z"/><path class="d" d="M37.206,59.983h.645l-.946.989.043.043A3.987,3.987,0,0,1,38.754,59.9a.609.609,0,0,1,.645.645c0,.86-1.806,2.15-1.806,2.537,0,.086.043.129.172.129.344,0,1.032-.516,2.537-1.849v.129c-1.161,1.075-2.107,1.849-2.537,1.849-.258,0-.43-.129-.43-.474,0-.816,1.806-2.107,1.806-2.536a.307.307,0,0,0-.344-.3c-.645,0-2.364,1.461-3.826,3.138H34.24l2.966-3.182Z"/><path class="d" d="M46.965,56.8h.774l-5.417,5.632c-.344.344-.43.515-.43.6,0,.129.086.172.3.172.6,0,1.375-.516,2.837-1.849l.043.086c-1.548,1.419-2.193,1.892-2.966,1.892-.173,0-.474-.086-.474-.388a.706.706,0,0,1,.086-.43,2.409,2.409,0,0,1-1.5.817c-.516,0-.645-.344-.645-.688,0-1.161,1.978-2.751,3.138-2.751.387,0,.688.129.688.43a1.013,1.013,0,0,1-.086.344L46.965,56.8ZM42.88,60.026c-.515,0-2.107,1.333-2.709,2.15-.3.43-.344.559-.344.687,0,.216.172.344.43.344.86,0,3.01-2.322,3.01-2.838A.351.351,0,0,0,42.88,60.026Zm10.405-3.439A3.36,3.36,0,0,1,50.4,59.767a.913.913,0,0,1-.946-.988c0-1.634,2.752-3.311,5.288-3.311a4.171,4.171,0,0,1,1.676.3,2.993,2.993,0,0,1,.731-.258l.043.086a5.269,5.269,0,0,1-.6.215,1.644,1.644,0,0,1,.988,1.419c0,1.118-1.333,1.806-2.278,1.978a.981.981,0,0,1,.129.474c0,.73-1.634,1.891-1.634,2.88,0,.474.43.645.817.645.946,0,2.665-1.591,2.665-2.537a.533.533,0,0,0-.559-.515c-.43,0-.946.515-1.2.817l-.129-.043c.3-.344.816-.9,1.333-.9a.652.652,0,0,1,.687.687,3.2,3.2,0,0,1-2.794,2.623,1.151,1.151,0,0,1-1.2-1.2c0-1.118,1.676-2.107,1.676-2.924a1.986,1.986,0,0,1-.6.086.634.634,0,0,1-.688-.559h-.043c-1.29,1.805-2.924,4.6-5.5,4.6-.774,0-1.29-.344-1.29-.86a.563.563,0,0,1,.515-.559.5.5,0,0,1,.516.516c0,.387-.559.344-.559.43,0,.173.388.344.86.344,2.795,0,4.9-6.277,7.954-7.352a3.684,3.684,0,0,0-1.419-.258c-2.924,0-5.246,1.891-5.246,3.1,0,.515.259.945.817.945.989,0,2.751-1.719,2.751-3.052h.129Zm3.138-.688a8.793,8.793,0,0,0-2.579,2.665l.043.043a.645.645,0,0,1,.43-.086,1.085,1.085,0,0,1,.945.559,2.486,2.486,0,0,0,1.806-2.021,1.284,1.284,0,0,0-.645-1.161Zm-1.333,3.224a.775.775,0,0,0-.816-.473c-.216,0-.344.043-.344.172s.215.344.6.344A2.075,2.075,0,0,0,55.091,59.123Zm6.492,2.408a6.6,6.6,0,0,1-3.568,1.806c-.344,0-.688-.129-.688-.516,0-1.161,2.107-2.966,3.268-2.966a.477.477,0,0,1,.474.473c0,.989-1.892,1.548-2.666,1.548-.645.688-.73.946-.73,1.075,0,.216.215.259.43.259A6.615,6.615,0,0,0,61.583,61.4v.128Zm-.989-1.548c-.43,0-.989.515-2.107,1.762,1.161,0,2.322-.989,2.322-1.548a.2.2,0,0,0-.215-.215Zm8.384,1.376a1.731,1.731,0,0,1-.86.344.82.82,0,0,1-.559-.215c-1.031,1.29-1.891,1.849-2.708,1.849a.67.67,0,0,1-.688-.645c0-1.032,2.021-2.924,3.138-2.924a.5.5,0,0,1,.474.259.158.158,0,0,1,.129-.043c.129,0,.215.129.215.3a2.214,2.214,0,0,1-.473,1.118.646.646,0,0,0,.473.172,1.248,1.248,0,0,0,.774-.344Zm-1.333-1.247c-.043-.086-.129-.215-.259-.215-.473,0-1.333,1.032-2.494,2.364-.258.3-.344.473-.344.645,0,.129.129.3.43.3A4.024,4.024,0,0,0,67.473,61.4a1.18,1.18,0,0,1-.129-.559A.963.963,0,0,1,67.645,60.112Z"/><path class="d" d="M70.053,59.983h.73l-1.375,1.5a4.276,4.276,0,0,1,1.333-.6,1.405,1.405,0,0,1,.9-.989c.172,0,.259.043.259.215,0,.387-.688.774-1.032.86,0,.3.129.559.387.559a11.429,11.429,0,0,0,1.935-.86l.043.086a13.773,13.773,0,0,1-1.978.9c-.3,0-.516-.258-.516-.645a3.98,3.98,0,0,0-2.15,1.375l-.645.774h-.688l2.794-3.182Z"/><path class="d" d="M75.384,57.747h.73l-1.375,1.461h.645l-.086.129h-.688l-2.666,2.881c-.43.515-.645.73-.645.86,0,.086.129.129.215.129.344,0,1.461-.216,3.225-1.763l-.043.086a5.522,5.522,0,0,1-3.225,1.806c-.258,0-.387-.172-.387-.43,0-.3.215-.687.817-1.375l2.02-2.193h-.73l.129-.129h.687ZM2.509,42.7H1.176v-.344h7.4l.086,2.708H8.314c-.215-.86-.387-1.805-1.29-2.193A3.968,3.968,0,0,0,5.648,42.7H4.229v3.826c1.247,0,1.934-.215,2.021-1.634h.344v3.74H6.25c-.129-1.5-.6-1.805-2.021-1.762V50.91h1.29v.344H1.176V50.91H2.509Zm6.32,5.073a3.323,3.323,0,0,1,3.1-3.268,3.356,3.356,0,0,1,3.1,3.268c0,1.805-1.118,3.654-3.1,3.654s-3.1-1.849-3.1-3.654Zm4.729-1.032a2.38,2.38,0,0,0-.172-.989,1.36,1.36,0,0,0-1.461-1.032,1.379,1.379,0,0,0-1.5,1.032,3.447,3.447,0,0,0-.129.989v2.15a4.725,4.725,0,0,0,.086,1.118,1.443,1.443,0,0,0,1.548,1.161,1.369,1.369,0,0,0,1.5-1.161,4.674,4.674,0,0,0,.129-1.118v-2.15Zm9.115-2.107v.258h-.989v4.171a2.313,2.313,0,0,1-.6,1.848,2.972,2.972,0,0,1-1.935.516,2.878,2.878,0,0,1-1.763-.559c-.43-.3-.6-.946-.6-2.064V44.891h-.989v-.258h3.225v.258h-.989V48.5c0,1.376-.129,2.58,1.677,2.58,1.161,0,1.634-.731,1.634-1.806V44.891h-.947v-.258h2.279ZM25.64,51h.989v.258H23.4V51h.989V44.892H23.4v-.258h3.311c1.075,0,2.365.129,2.365,1.5,0,1.118-1.161,1.505-2.107,1.634,1.548.258,1.892,1.075,1.892,2.708,0,.344.043.731.989.559v.215a2.7,2.7,0,0,1-.817.129,1.355,1.355,0,0,1-1.548-1.5A2.5,2.5,0,0,0,27.1,48.2a1.58,1.58,0,0,0-.9-.344H25.64V51Zm0-3.4h.817c.9,0,1.247-.43,1.247-1.333,0-1.075-.3-1.375-1.2-1.375h-.86V47.6Zm8.384,3.741h-.215V48.675H34.2c.258,1.29,1.032,2.45,2.451,2.45a1.919,1.919,0,0,0,1.978-1.849c0-1.247-1.118-1.5-2.107-1.849-.258-.086-.516-.172-.817-.258a2.514,2.514,0,0,1-1.849-2.579A2.362,2.362,0,0,1,36.3,42.183a2.852,2.852,0,0,1,1.935.645l.516-.515h.215v2.494h-.43a2.361,2.361,0,0,0-2.279-2.322,1.626,1.626,0,0,0-1.677,1.548c0,1.032.731,1.118,1.548,1.333.344.087.6.216.817.259.258.086.6.172.9.3a2.6,2.6,0,0,1,1.5,2.622A2.721,2.721,0,0,1,36.56,51.47a2.915,2.915,0,0,1-1.892-.688l-.644.559Zm8.856-6.449V47.73c.946,0,1.461-.129,1.505-1.2h.258v2.752h-.258c-.087-1.075-.43-1.333-1.505-1.29V51h1.375c1.29,0,1.591-.731,1.806-1.849h.258l-.086,2.107H40.6V51h.989V44.892H40.6v-.258h5.5l.043,1.805h-.258c-.215-.946-.6-1.333-1.118-1.461a2.654,2.654,0,0,0-.86-.086H42.88Zm4.171,6.363V51h.817L50.233,44.5h.344L52.812,51h.817v.258H50.491V51h1.032l-.6-1.72H48.77l-.6,1.72h.989v.258Zm1.806-2.236h1.934l-.9-2.795Zm5.8,2.322h-.172V49.363h.258c.215.946.774,1.806,1.849,1.806a1.433,1.433,0,0,0,1.461-1.376c0-.945-.817-1.117-1.548-1.375-.216-.086-.43-.129-.6-.215a1.884,1.884,0,0,1,.43-3.7,2.1,2.1,0,0,1,1.419.473l.387-.387h.172v1.891h-.3a1.824,1.824,0,0,0-1.72-1.762,1.2,1.2,0,0,0-1.247,1.161c0,.731.559.817,1.161.989a4.636,4.636,0,0,1,.6.215,4.231,4.231,0,0,1,.687.215,1.9,1.9,0,0,1,1.118,1.935,2.054,2.054,0,0,1-2.106,2.193,2.385,2.385,0,0,1-1.419-.516l-.429.43Zm5.288-3.568a3.079,3.079,0,1,1,6.147,0c0,1.805-1.118,3.654-3.053,3.654C61.067,51.427,59.949,49.578,59.949,47.772Zm4.686-1.032a3.447,3.447,0,0,0-.129-.989,1.582,1.582,0,0,0-2.967,0,3.447,3.447,0,0,0-.129.989v2.15a4.726,4.726,0,0,0,.086,1.118,1.415,1.415,0,0,0,1.548,1.161,1.37,1.37,0,0,0,1.505-1.161,4.727,4.727,0,0,0,.086-1.118Zm8.04,4.643h-.3L68.2,45.107V51h.946v.258H66.914V51h.946V44.892h-.946v-.258h2.536l2.924,4.342V44.892h-.946v-.258h2.235v.258h-.989v6.492Zm2.193-.043H74.7V49.363H75c.215.946.774,1.806,1.806,1.806a1.472,1.472,0,0,0,1.5-1.376c0-.945-.859-1.117-1.59-1.375-.172-.086-.387-.129-.6-.215A1.819,1.819,0,0,1,74.74,46.31,1.763,1.763,0,0,1,76.546,44.5a2.213,2.213,0,0,1,1.461.473l.387-.387h.172v1.891h-.344a1.755,1.755,0,0,0-1.676-1.762A1.2,1.2,0,0,0,75.3,45.881c0,.731.515.817,1.118.989a5.62,5.62,0,0,1,.645.215,5.714,5.714,0,0,1,.645.215,1.9,1.9,0,0,1,1.118,1.935,2.045,2.045,0,0,1-2.064,2.193,2.382,2.382,0,0,1-1.419-.516l-.474.43Zm-28.419-21.2a.323.323,0,0,0,.3-.3.3.3,0,1,0-.6,0A.323.323,0,0,0,46.449,30.145Z"/><path class="d" d="M46.062,29.457l.258.086.129-.258.086.258.3-.086-.129.258.258.129-.258.086.129.3-.3-.129-.086.258L46.32,30.1l-.258.129.086-.3-.258-.086.258-.129ZM38.71,16.473a.869.869,0,0,1,.9.86A.932.932,0,0,1,38.71,16.473Zm0-.9a.93.93,0,0,1,.946.817A.878.878,0,0,1,38.71,15.57Zm.043-.946a.9.9,0,0,1,.9.86A.932.932,0,0,1,38.753,14.624Zm0-.9a.862.862,0,0,1,.9.817A.865.865,0,0,1,38.753,13.721Zm0-.946a.968.968,0,0,1,.946.86A.942.942,0,0,1,38.753,12.775Zm.043-.9a.889.889,0,0,1,.9.817A.865.865,0,0,1,38.8,11.872Z"/><path class="d" d="M38.5,37.5h2.537v-.086l-.817-.387-.43-25.151c0-.043,0-.043-.043-.043v.043l-.43,25.151-.817.387Zm7.137-17.585c-.086.516-.344.86-.9.86A.9.9,0,0,1,45.632,19.912Zm.043.86a.865.865,0,0,1-.9.817A.862.862,0,0,1,45.676,20.772Zm-2.924-.9a.865.865,0,0,1-.9-.817A.862.862,0,0,1,42.752,19.869Z"/><path class="d" d="M41.2,22.578a.879.879,0,0,1-.946-.817A.9.9,0,0,1,41.2,22.578Zm6.148,2.579a.93.93,0,0,0-.946.817A.878.878,0,0,0,47.352,25.157Zm-.773,3.311c.515.043.9.258.945.817A.878.878,0,0,1,46.579,28.468Zm1.031-1.2c-.515-.043-.9-.258-.9-.86A.872.872,0,0,1,47.61,27.264ZM32.089,30.1A.267.267,0,0,1,32,29.93l-.172-4.9a.187.187,0,0,0-.043-.129c-.043,0-.043.043-.043.129l-.215,5.2s0,.129.086.172l8.126,4.772V34.014L32.089,30.1Z"/><path class="d" d="M47.395,30.1c.129-.086.129-.172.129-.172l.173-4.9c0-.086,0-.129.043-.129a.189.189,0,0,1,.043.129l.172,5.2s.043.129-.043.172l-8.169,4.772V34.014L47.395,30.1ZM33.508,26.576c-.086-.043-.086-.086-.086-.086l-.129-4.127c0-.043,0-.086-.043-.086a.151.151,0,0,0-.043.086l-.128,4.342a.094.094,0,0,0,.043.129l6.621,3.912V29.8l-6.234-3.224Z"/><path class="d" d="M45.976,26.576c.086-.043.086-.086.086-.086l.172-4.127v-.086c.043,0,.043.043.043.086l.172,4.342a.212.212,0,0,1-.043.129l-6.664,3.912V29.8l6.234-3.224Zm-10.92-3.483c-.086-.043-.086-.086-.086-.086l-.086-3.1-.043-.043-.043.043-.086,3.353a.212.212,0,0,0,.043.129l4.987,2.967v-.817l-4.687-2.45Zm9.416,0a.133.133,0,0,0,.043-.086l.129-3.1v-.043a.042.042,0,0,1,.043.043l.129,3.353a.212.212,0,0,1-.043.129l-5.031,2.967v-.817l4.729-2.45Zm-8-3.353a.042.042,0,0,1-.043-.043L36.345,17.5a.042.042,0,0,0-.043-.043V17.5l-.129,2.364s0,.086.043.086l3.525,2.107v-.6L36.474,19.74Zm1.161-2.795V16.9l-.086-1.376c0-.043,0-.043-.043-.043v.043l-.086,1.548a.042.042,0,0,0,.043.043l2.279,1.333v-.387Zm4.213,0a.042.042,0,0,0,.043-.043l.086-1.376v0l.087,1.548v.043L39.742,18.45v-.387l2.106-1.118Zm1.2,2.795A.042.042,0,0,0,43.1,19.7l.086-2.193v-.043c.044,0,.044,0,.044.043l.086,2.364s0,.086-.043.086l-3.526,2.107v-.6Z"/><path class="d" d="M42.02,16.3a.878.878,0,0,0,.946-.817A.9.9,0,0,0,42.02,16.3Zm-.043-.817a.878.878,0,0,0,.946-.817A.93.93,0,0,0,41.978,15.484Zm-.043.473a.9.9,0,0,1-.9-.86A.9.9,0,0,1,41.934,15.957Zm-.043.817a.933.933,0,0,1-.9-.86A.87.87,0,0,1,41.892,16.774Zm2.279.731c-.086.516-.344.86-.9.86A.9.9,0,0,1,44.17,17.5Zm-.043-.86a.9.9,0,0,0-.9.86C43.783,17.5,44.041,17.16,44.127,16.644ZM33.895,19.1a.933.933,0,0,1,.946.86A.942.942,0,0,1,33.895,19.1Zm0,.817c.086.516.344.86.9.86A.9.9,0,0,0,33.895,19.912Zm-.043.86a.865.865,0,0,0,.9.817A.862.862,0,0,0,33.852,20.772Zm-.043.817a.884.884,0,0,0,.946.86A.937.937,0,0,0,33.809,21.589Zm.9,1.677a.865.865,0,0,1-.9-.817A.862.862,0,0,1,34.712,23.265Zm1.5-3.4a.878.878,0,0,1-.946-.817A.9.9,0,0,1,36.217,19.869Zm-.344,1.5a.9.9,0,0,0-.9.86C35.528,22.234,35.787,21.89,35.873,21.374Zm-.86,1.677a.932.932,0,0,0,.9-.86A.869.869,0,0,0,35.013,23.051Zm1.548-.473a.864.864,0,0,1-.9.817A.862.862,0,0,1,36.56,22.578Zm.688.344a.865.865,0,0,1-.9.817A.861.861,0,0,1,37.248,22.922Zm.688.344a.878.878,0,0,1-.946.817A.929.929,0,0,1,37.936,23.265Zm.688.344a.974.974,0,0,1-.946.86A.906.906,0,0,1,38.624,23.61Zm-.258,1.2a.932.932,0,0,0,.9-.86A.869.869,0,0,0,38.366,24.814ZM36.432,19.7a.878.878,0,0,0,.946-.817A.9.9,0,0,0,36.432,19.7Zm1.591-.473a.932.932,0,0,1-.9.86A.869.869,0,0,1,38.022,19.224Zm.688.344a.932.932,0,0,1-.9.86A.87.87,0,0,1,38.71,19.568Zm.688.344a.911.911,0,0,1-.946.86A.968.968,0,0,1,39.4,19.912Zm-4.213,3.741a.905.905,0,0,1-.946.817A.9.9,0,0,1,35.185,23.653Zm-.3,1.2A.937.937,0,0,1,35.83,24,.909.909,0,0,1,34.884,24.856Zm.645.387a.937.937,0,0,1,.946-.86A.909.909,0,0,1,35.528,25.244Zm.645.387a.907.907,0,0,1,.946-.86A.974.974,0,0,1,36.173,25.63Zm1.29.731a.9.9,0,0,1,.946-.817A.905.905,0,0,1,37.463,26.361Zm-.817-6.148a.942.942,0,0,1-.946.86A.906.906,0,0,1,36.647,20.213Zm-.3,1.2a.929.929,0,0,1,.946-.817A.878.878,0,0,1,36.346,21.417Zm.688.387a.862.862,0,0,1,.9-.817A.865.865,0,0,1,37.033,21.8Zm.645.387a.862.862,0,0,1,.9-.817A.864.864,0,0,1,37.678,22.191Zm.645.387a.865.865,0,0,0,.9-.817A.862.862,0,0,0,38.323,22.578Zm-.473-5.245a.975.975,0,0,1-.946.86A.906.906,0,0,1,37.851,17.333Zm-.258,1.2a.862.862,0,0,1,.9-.817A.865.865,0,0,1,37.592,18.536Zm.645.387a.862.862,0,0,1,.9-.817A.865.865,0,0,1,38.237,18.923Zm-.817-1.849a.865.865,0,0,1-.9-.817A.862.862,0,0,1,37.421,17.074Zm.043-.774a.865.865,0,0,1-.9-.817A.834.834,0,0,1,37.463,16.3Zm.043-.817a.865.865,0,0,1-.9-.817A.862.862,0,0,1,37.506,15.484Zm.043.43a.884.884,0,0,0,.946-.86A.968.968,0,0,0,37.549,15.914Zm.086.86a.932.932,0,0,0,.9-.86A.87.87,0,0,0,37.635,16.774Zm-2.322,1.462a.932.932,0,0,0,.9.86A.87.87,0,0,0,35.313,18.235Zm.043-.774a.865.865,0,0,0,.9.817A.862.862,0,0,0,35.357,17.462Zm0-.817a.937.937,0,0,1,.946.86A.884.884,0,0,1,35.357,16.644Zm-3.182,8.513a.863.863,0,0,1,.9.817A.865.865,0,0,1,32.175,25.157Zm.086-2.494a.9.9,0,0,1,.9.86C32.6,23.524,32.347,23.18,32.261,22.664Zm-.043.86a.933.933,0,0,1,.946.86A.942.942,0,0,1,32.218,23.524Zm10.233,2.45a.3.3,0,0,0,0-.6.3.3,0,1,0,0,.6Z"/><path class="d" d="M42.064,25.286l.258.086.129-.258.086.258.3-.086-.129.258.258.129-.258.085.129.3-.3-.129-.086.258-.129-.258-.258.129.085-.3-.258-.085.258-.129Zm-.645,3.053a.333.333,0,0,0,.3-.344.3.3,0,0,0-.6,0A.332.332,0,0,0,41.419,28.339Z"/><path class="d" d="M41.032,27.608l.3.129.086-.258.129.258.258-.129-.086.3.258.086-.258.129.086.258-.258-.086-.129.258-.086-.258-.3.086.129-.258L40.9,28l.259-.086ZM43.4,30.833a.332.332,0,0,0,.3-.344.3.3,0,0,0-.6,0A.333.333,0,0,0,43.4,30.833Z"/><path class="d" d="M43.009,30.1l.259.129.129-.258.129.258.258-.129-.129.3.3.086-.3.129.129.258-.258-.086-.129.258-.129-.258-.259.086.086-.258-.258-.129L43.1,30.4Zm1.032,3.913a.333.333,0,0,0,.3-.344.3.3,0,0,0-.6,0A.333.333,0,0,0,44.041,34.014Z"/><path class="d" d="M43.655,33.283l.258.129.129-.258.129.258.259-.129-.087.3.259.086-.259.129.087.258-.259-.086-.129.258-.129-.258-.258.086.086-.258-.258-.129.258-.086Zm-.43.688a.919.919,0,0,1-.559,1.118A.85.85,0,0,1,43.225,33.971Zm3.654-1.333c-.516-.043-.9-.3-.9-.86A.847.847,0,0,1,46.879,32.638ZM42.193,30.7c-.516-.043-.9-.258-.946-.817A.878.878,0,0,1,42.193,30.7Zm3.912-5.288a.932.932,0,0,1-.9-.86A.87.87,0,0,1,46.105,25.415Zm-3.1,2.666a.9.9,0,0,1-.945-.817A.9.9,0,0,1,43.009,28.081Zm1.548-5.847a.884.884,0,0,1-.946-.86A.938.938,0,0,1,44.557,22.234ZM49.2,29.113c-.515-.043-.9-.258-.946-.86A.942.942,0,0,1,49.2,29.113Zm-5.5-3.783a.918.918,0,0,1-.559,1.118A.882.882,0,0,1,43.7,25.329Zm.688,3.138a.919.919,0,0,1-.559,1.118A.882.882,0,0,1,44.386,28.468Zm-2.321,4.3c-.559,0-.817-.344-.9-.86A.9.9,0,0,1,42.064,32.767Zm3.74,3.526a1.23,1.23,0,0,1,1.2-1.2,1.2,1.2,0,0,1,0,2.407A1.23,1.23,0,0,1,45.8,36.293Zm2.15,0a.968.968,0,0,0-1.935,0,.938.938,0,0,0,.989.946A.928.928,0,0,0,47.954,36.293Zm-.344.645h-.3l-.3-.559H46.75v.559h-.258v-1.29h.645a.517.517,0,0,1,.344.086c.129.043.129.172.129.3,0,.258-.086.344-.344.344Zm-.473-.731c.129,0,.258-.043.258-.172,0-.172-.215-.172-.3-.172H46.75v.344Zm30.784,25.41a8.093,8.093,0,0,1-1.892,1.118,1.823,1.823,0,0,1,.259-.3,1.466,1.466,0,0,0,.387-1.032c-.043-.473-.43-.774-.688-1.161.172-.172.516-.516.516-.817a.185.185,0,0,0-.172-.172c-.388,0-.559.43-.559.731a.865.865,0,0,0,.086.258,10.308,10.308,0,0,1-1.806,1.719,1.3,1.3,0,0,0-.387.774c-.043.387.043.731.6.731a2.987,2.987,0,0,0,1.5-.516A8,8,0,0,0,78.006,61.7Zm-3.784,1.72c-.344,0-.387-.3-.387-.559a.941.941,0,0,1,.344-.645A11.5,11.5,0,0,0,75.9,60.326a2.365,2.365,0,0,1,.3.774C76.288,62.132,74.782,63.25,74.137,63.336ZM64.85,61.573a10.745,10.745,0,0,1-1.892,1.075c.086-.086.172-.215.259-.3a1.466,1.466,0,0,0,.387-1.032c-.043-.473-.43-.774-.688-1.118.173-.215.516-.559.516-.817,0-.086-.086-.215-.172-.215-.388,0-.559.43-.559.731a.543.543,0,0,0,.086.258,8.9,8.9,0,0,1-1.805,1.719,1.642,1.642,0,0,0-.388.774c-.043.388.043.731.6.731a2.987,2.987,0,0,0,1.5-.516,8,8,0,0,0,2.236-1.247l-.085-.043ZM61.067,63.25c-.344.043-.388-.259-.388-.559a1.185,1.185,0,0,1,.344-.645A11.5,11.5,0,0,0,62.83,60.24a2.357,2.357,0,0,1,.3.774c.086,1.033-1.419,2.193-2.063,2.236ZM28.65,61.573a7.534,7.534,0,0,1-1.935,1.075c.086-.086.215-.172.258-.3a1.245,1.245,0,0,0,.387-1.032c-.043-.473-.43-.774-.688-1.118.172-.172.516-.515.516-.817a.185.185,0,0,0-.172-.172c-.344,0-.516.43-.516.731a1.512,1.512,0,0,0,.043.258,10.435,10.435,0,0,1-1.763,1.719,1.313,1.313,0,0,0-.43.774c-.043.388.043.688.6.688a2.627,2.627,0,0,0,1.5-.516,7.278,7.278,0,0,0,2.236-1.2l-.043-.086ZM24.823,63.25c-.344.043-.387-.259-.344-.559a1.131,1.131,0,0,1,.3-.645,15.294,15.294,0,0,0,1.849-1.763,2.188,2.188,0,0,1,.258.774C26.973,62.09,25.511,63.207,24.823,63.25Z"/></g></g></svg>