<svg xmlns="http://www.w3.org/2000/svg" xmlns:xlink="http://www.w3.org/1999/xlink" width="80" height="80" viewBox="0 0 80 80"><defs><style>.a,.c{fill:#fff;}.a{stroke:#707070;}.b{clip-path:url(#a);}.c,.d{fill-rule:evenodd;}</style><clipPath id="a"><rect class="a" width="80" height="80" transform="translate(399 2846)"/></clipPath></defs><g class="b" transform="translate(-399 -2846)"><g transform="translate(399 2846)"><path class="c" d="M0,0H80V80H0Z"/><path class="d" d="M12.53,61.7V61.49h-.348V58.01h.348V57.8H10.92v.223h.353v1.543h-1.5V58.01h.353V57.8H8.521v.212h.348v3.48H8.521V61.7h1.6V61.49H9.777V59.782h1.5V61.49H10.92V61.7Zm4.652-1.922A1.84,1.84,0,0,0,15.265,57.7,1.892,1.892,0,0,0,13.3,59.761a1.944,1.944,0,1,0,3.885.02Zm-.956.01c0,1.091-.265,1.812-.96,1.812-.738,0-.992-.935-.992-1.812,0-.909.192-1.983.992-1.983C16.039,57.809,16.226,58.93,16.226,59.792Zm5.163-.509V57.8H17.935v1.485h.1c0-1.163.763-1.272,1.028-1.272h.088v3.48H18.8V61.7h1.61v-.213h-.348v-3.48h.1a1.127,1.127,0,0,1,1.116,1.272Zm4.3,2.42V60.327h-.125a1.127,1.127,0,0,1-1.049,1.163H23.4V59.8h.462c.4.02.659.176.659.84h.12V58.821h-.12a.754.754,0,0,1-.659.794H23.4v-1.6h.862c.914,0,1.091.229,1.246,1.205h.1V57.8H22.139v.212h.348v3.48h-.348V61.7h3.552Zm3.883,0V60.151H29.46c-.109.6-.307,1.34-1.319,1.34H27.7v-3.48h.353V57.8h-1.61v.212h.348v3.48h-.348V61.7h3.131Zm4.1-1.252a1.319,1.319,0,0,0-1.407-1.335c-.811-.031-1.428-.031-1.428-.608,0-.534.54-.633.96-.633a1.545,1.545,0,0,1,1.47,1.2h.15V57.8h-.15c-.005.119,0,.286-.146.286a3.659,3.659,0,0,0-1.376-.384,1.263,1.263,0,1,0-.037,2.519c.759.01,1.444.052,1.444.666,0,.555-.6.7-1.143.711a1.517,1.517,0,0,1-1.542-1.3h-.145V61.7h.145s.031-.286.2-.286c.317,0,.452.383,1.36.383,1.076,0,1.641-.629,1.641-1.351Zm5.943.2h-.14c0,.187-.01.509-.26.509s-.519-.389-.519-.389a2.387,2.387,0,0,0,.265-1.205,1.773,1.773,0,0,0-.042-.332l-.213.042a2.373,2.373,0,0,1-.166,1.366l-1.252-1.267c.187-.119.686-.364.686-.878a.775.775,0,0,0-.867-.794,1.094,1.094,0,0,0-1.153,1.018c0,.379.156.566.447.935-.213.1-.935.452-.935,1.153,0,.41.3,1,1.3,1a1.94,1.94,0,0,0,1.366-.353.807.807,0,0,0,.613.233c.753,0,.841-.514.862-.691a2.118,2.118,0,0,0,.011-.342Zm-2.031-2.155a.819.819,0,0,1-.441.733s-.535-.473-.535-.883a.5.5,0,0,1,.5-.5c.3,0,.478.332.478.654Zm.41,2.82a1.561,1.561,0,0,1-.753.244.987.987,0,0,1-.93-1.043.856.856,0,0,1,.276-.665l1.407,1.464Zm7.5-.54h-.129c0,.254-.078.654-.275.654-.245,0-.193-.244-.234-.789a.849.849,0,0,0-.779-.888.941.941,0,0,0,.889-.945c0-.556-.234-1.008-1.221-1.008H41.417v.212h.349v3.48h-.349V61.7h1.611v-.213h-.354V59.839h.608c.6,0,.6.265.6,1,0,.769.421.965.821.965.618,0,.794-.4.794-1.028ZM44.06,58.862a.679.679,0,0,1-.779.764h-.608V58.01h.665c.53,0,.722.384.722.852ZM49.8,61.7V60.327h-.124a1.127,1.127,0,0,1-1.05,1.163H47.508V59.8h.463c.4.02.659.176.659.84h.12V58.821h-.12a.753.753,0,0,1-.659.794h-.463v-1.6h.862c.914,0,1.091.229,1.247,1.205h.1V57.8H46.251v.212H46.6v3.48h-.348V61.7H49.8Zm4.1-1.252A1.319,1.319,0,0,0,52.5,59.117c-.811-.031-1.428-.031-1.428-.608,0-.534.54-.633.96-.633a1.544,1.544,0,0,1,1.47,1.2h.151V57.8H53.5c0,.119,0,.286-.145.286a3.662,3.662,0,0,0-1.376-.384,1.263,1.263,0,1,0-.036,2.519c.758.01,1.444.052,1.444.666,0,.555-.6.7-1.142.711A1.518,1.518,0,0,1,50.7,60.3h-.145V61.7H50.7s.031-.286.2-.286c.317,0,.452.383,1.36.383,1.076,0,1.641-.629,1.641-1.351Zm4.631-.67A1.84,1.84,0,0,0,56.619,57.7a1.891,1.891,0,0,0-1.968,2.062,1.944,1.944,0,1,0,3.884.02Zm-.956.01c0,1.091-.265,1.812-.96,1.812-.738,0-.992-.935-.992-1.812,0-.909.192-1.983.992-1.983C57.392,57.809,57.579,58.93,57.579,59.792Zm5.791.982h-.129c0,.254-.078.654-.276.654-.244,0-.192-.244-.233-.789a.849.849,0,0,0-.779-.888.94.94,0,0,0,.888-.945c0-.556-.233-1.008-1.22-1.008H59.289v.212h.349v3.48h-.349V61.7H60.9v-.213h-.353V59.839h.607c.6,0,.6.265.6,1,0,.769.421.965.821.965.617,0,.794-.4.794-1.028Zm-1.439-1.912a.679.679,0,0,1-.779.764h-.607V58.01h.665c.529,0,.721.384.721.852Zm5.646.421V57.8H64.123v1.485h.1c0-1.163.764-1.272,1.028-1.272h.088v3.48h-.353V61.7H66.6v-.213h-.348v-3.48h.1a1.127,1.127,0,0,1,1.116,1.272h.1Zm4.1,1.169a1.319,1.319,0,0,0-1.408-1.335c-.81-.031-1.427-.031-1.427-.608,0-.534.54-.633.96-.633a1.545,1.545,0,0,1,1.47,1.2h.151V57.8h-.151c0,.119,0,.286-.145.286A3.662,3.662,0,0,0,69.75,57.7a1.263,1.263,0,1,0-.036,2.519c.758.01,1.444.052,1.444.666,0,.555-.6.7-1.142.711a1.517,1.517,0,0,1-1.543-1.3h-.146V61.7h.146s.031-.286.2-.286c.316,0,.452.383,1.36.383,1.076,0,1.641-.629,1.641-1.351ZM37.375,38.3a6.168,6.168,0,0,0-1.772.408,2.16,2.16,0,0,1-1.4,0c-.1-.041-.427-.061-.041.366a1.834,1.834,0,0,0,.55.366,4.232,4.232,0,0,0,3.869-.264c.346-.163.916-.142.916-.326-.02-.183-.305-.305-.509-.591a6.4,6.4,0,0,0-2.892-2.444c-.611-.244-.9-.061-.713.1.448.427.672,1.222,1.263,1.893a1.669,1.669,0,0,0,.733.488Zm2-.59c0-.427.652-1.079.774-1.466.143.387.773,1.038.773,1.466a.774.774,0,0,1-1.547,0Zm0,2.117c0,.427.652,1.1.774,1.486.143-.387.773-1.059.773-1.486a.774.774,0,0,0-1.547,0Z"/><path class="d" d="M33.526,36.693a6.227,6.227,0,0,0-1.771-.224,2.249,2.249,0,0,1-1.263-.448c-.081-.081-.366-.224-.163.326a1.859,1.859,0,0,0,.366.489,4.055,4.055,0,0,0,3.6,1.038c.387-.02,1.018.122,1.059-.061.041-.163-.265-.326-.366-.631a6.244,6.244,0,0,0-1.812-3.2c-.468-.407-.814-.326-.692-.122.265.53.2,1.324.53,2.138a1.853,1.853,0,0,0,.509.693Z"/><path class="d" d="M30.37,33.821a5.113,5.113,0,0,0-1.548-.692,2.081,2.081,0,0,1-1.038-.774c-.061-.1-.285-.305-.265.244a2.882,2.882,0,0,0,.224.591,3.863,3.863,0,0,0,3.014,1.934c.346.1.9.387.977.244.1-.122-.163-.366-.143-.692a6.007,6.007,0,0,0-.794-3.421c-.285-.529-.631-.55-.57-.305.082.55-.183,1.263-.122,2.1A1.751,1.751,0,0,0,30.37,33.821Z"/><path class="d" d="M28.456,30.36a5.59,5.59,0,0,0-1.2-1.1,1.771,1.771,0,0,1-.713-1.018c-.041-.1-.183-.346-.326.163a3.423,3.423,0,0,0,2.2,3.258c.306.2.713.611.835.53.122-.1-.041-.387.061-.672a5.751,5.751,0,0,0,.305-3.38c-.122-.57-.427-.672-.427-.448-.1.53-.55,1.1-.733,1.894a1.672,1.672,0,0,0,0,.774Z"/><path class="d" d="M27.8,26.43a5.612,5.612,0,0,0-.692-1.364,1.846,1.846,0,0,1-.265-1.141c0-.081-.041-.366-.326.041a2.587,2.587,0,0,0-.183.529,3.589,3.589,0,0,0,1,3.075c.2.265.407.794.53.733.142-.041.122-.346.305-.55a5.446,5.446,0,0,0,1.364-2.871c.081-.53-.143-.753-.2-.55-.265.448-.876.794-1.263,1.426a1.151,1.151,0,0,0-.265.672Z"/><path class="d" d="M28.313,22.745a5.2,5.2,0,0,0-.305-1.426,1.715,1.715,0,0,1,.041-1.1c.02-.1.041-.366-.326-.061-.061.081-.163.244-.285.448a3.432,3.432,0,0,0,.163,3.075c.122.285.183.814.305.794.142,0,.2-.285.407-.448a5.277,5.277,0,0,0,1.976-2.281c.2-.468.041-.733-.061-.57-.346.346-.977.509-1.507,1.018A1.013,1.013,0,0,0,28.313,22.745Z"/><path class="d" d="M29.779,19.466A4.953,4.953,0,0,0,29.9,18a1.648,1.648,0,0,1,.326-1.059c.061-.061.143-.305-.265-.122a1.338,1.338,0,0,0-.407.346,3.365,3.365,0,0,0-.713,2.993c.041.326-.041.835.081.855.143.041.265-.224.53-.326a5.138,5.138,0,0,0,2.5-1.629c.326-.407.264-.692.1-.57-.428.224-1.08.224-1.731.55A1.13,1.13,0,0,0,29.779,19.466Z"/><path class="d" d="M32.04,16.86a3.915,3.915,0,0,0,.55-1.181,1.48,1.48,0,0,1,.611-.733c.081-.061.224-.244-.183-.2a1.513,1.513,0,0,0-.448.143,3.062,3.062,0,0,0-1.527,2.24c-.061.265-.285.672-.183.733s.285-.1.509-.1a4.469,4.469,0,0,0,2.586-.57c.387-.224.427-.468.265-.427-.427.061-.957-.142-1.588-.1a1.028,1.028,0,0,0-.591.2Z"/><path class="d" d="M34.605,15.129a3.95,3.95,0,0,0,.692-.9,1.284,1.284,0,0,1,.652-.53c.081-.02.224-.163-.122-.2a1.07,1.07,0,0,0-.407.041,2.614,2.614,0,0,0-1.731,1.67c-.1.2-.387.529-.286.591.061.061.265-.061.468,0a3.759,3.759,0,0,0,2.321-.02c.366-.122.448-.326.305-.305-.387-.041-.794-.305-1.365-.387a.923.923,0,0,0-.529.041Z"/><path class="d" d="M38.6,13.765a1.746,1.746,0,0,1-1.141.814,1.649,1.649,0,0,1-1.365-.1,1.759,1.759,0,0,1,1.12-.814,1.782,1.782,0,0,1,1.385.1Zm5.742,5.8a.759.759,0,0,0,1-.407.859.859,0,0,0,.122-.427h.591v4.785h-.428a7.05,7.05,0,0,0-4.7-4.4c-2.117-.326-4.581-.285-5.8,1.568A1.484,1.484,0,0,0,35.6,22.6c2.179,1.323,4.561.713,7.453,1.12a4.591,4.591,0,0,1,3.727,2.667,4.9,4.9,0,0,1-.122,4.235c-1.486,2.545-4.256,2.789-6.027,2.789a15.72,15.72,0,0,1-5.172-1.385.758.758,0,0,0-1,.407.919.919,0,0,0-.122.428H33.75v-5.05c.163,0,.346,0,.59.02A6.409,6.409,0,0,0,38.576,32.4a6.71,6.71,0,0,0,5.885-.631,2.1,2.1,0,0,0,.652-2.281c-.366-1.283-2.342-1.629-3.767-1.649-3.055-.082-6.76-.041-7.86-3.4a4.78,4.78,0,0,1,1-4.582c1.914-1.873,5.131-1.934,7.575-1.181.875.184,1.466.652,2.281.9ZM42.913,38.3a6.507,6.507,0,0,1,1.792.408,2.1,2.1,0,0,0,1.385,0c.1-.041.427-.061.041.366a1.826,1.826,0,0,1-.55.366,4.188,4.188,0,0,1-3.849-.264c-.366-.163-.936-.142-.916-.326,0-.183.286-.305.489-.591A6.4,6.4,0,0,1,44.2,35.817c.611-.244.9-.061.713.1-.448.427-.652,1.222-1.262,1.893a1.67,1.67,0,0,1-.734.488Z"/><path class="d" d="M46.762,36.693a6.231,6.231,0,0,1,1.771-.224A2.206,2.206,0,0,0,49.8,36.02c.081-.081.366-.224.163.326a1.876,1.876,0,0,1-.367.489,4.054,4.054,0,0,1-3.6,1.038c-.387-.02-1,.122-1.059-.061-.041-.163.265-.326.366-.631a6.239,6.239,0,0,1,1.812-3.2c.469-.407.815-.326.692-.122-.265.53-.2,1.324-.529,2.138a1.863,1.863,0,0,1-.509.693Z"/><path class="d" d="M49.917,33.821a5.108,5.108,0,0,1,1.548-.692,2,2,0,0,0,1.038-.774c.061-.1.286-.305.265.244a2.9,2.9,0,0,1-.224.591,3.865,3.865,0,0,1-3.014,1.934c-.346.1-.9.387-.977.244-.081-.122.163-.366.143-.692a6.007,6.007,0,0,1,.794-3.421c.305-.529.631-.55.57-.305-.081.55.183,1.263.122,2.1a1.758,1.758,0,0,1-.266.774Z"/><path class="d" d="M51.832,30.36a5.176,5.176,0,0,1,1.221-1.1,1.982,1.982,0,0,0,.713-1.018c.02-.1.163-.346.305.163a3.151,3.151,0,0,1-.02.59,3.716,3.716,0,0,1-2.179,2.667c-.305.2-.713.611-.815.53-.122-.1.02-.387-.082-.672a5.915,5.915,0,0,1-.3-3.38c.142-.57.427-.672.427-.448.1.53.571,1.1.734,1.894a1.265,1.265,0,0,1,0,.774Z"/><path class="d" d="M52.484,26.43a6.41,6.41,0,0,1,.691-1.364,1.846,1.846,0,0,0,.265-1.141c0-.081.061-.366.346.041a2.811,2.811,0,0,1,.163.529,3.636,3.636,0,0,1-.977,3.075c-.224.265-.427.794-.55.733-.143-.041-.1-.346-.286-.55a5.485,5.485,0,0,1-1.385-2.871c-.081-.53.143-.753.2-.55.265.448.876.794,1.263,1.426a1.033,1.033,0,0,1,.265.672Z"/><path class="d" d="M51.994,22.745a4.606,4.606,0,0,1,.286-1.426,1.691,1.691,0,0,0-.02-1.1c-.041-.1-.061-.366.305-.061a2.982,2.982,0,0,1,.286.448,3.43,3.43,0,0,1-.143,3.075c-.122.285-.2.814-.326.794-.143,0-.183-.285-.408-.448A5.412,5.412,0,0,1,50,21.747c-.183-.468-.041-.733.081-.57.326.346.977.509,1.507,1.018A1.118,1.118,0,0,1,51.994,22.745Z"/><path class="d" d="M50.508,19.466a4.281,4.281,0,0,1-.1-1.466,1.828,1.828,0,0,0-.346-1.059c-.041-.061-.143-.305.286-.122a1.673,1.673,0,0,1,.387.346,3.365,3.365,0,0,1,.713,2.993c-.041.326.042.835-.081.855-.143.041-.265-.224-.509-.326a5.1,5.1,0,0,1-2.525-1.629c-.326-.407-.245-.692-.1-.57.428.224,1.08.224,1.732.55A1.132,1.132,0,0,1,50.508,19.466Z"/><path class="d" d="M48.289,16.84a4.346,4.346,0,0,1-.53-1.181,1.6,1.6,0,0,0-.611-.734c-.081-.061-.224-.244.183-.2a1.717,1.717,0,0,1,.448.143,2.989,2.989,0,0,1,1.507,2.24c.061.285.3.672.2.733-.1.081-.286-.1-.529-.1a4.436,4.436,0,0,1-2.567-.55c-.407-.244-.427-.488-.285-.448.448.061.977-.143,1.608-.1A.977.977,0,0,1,48.289,16.84Z"/><path class="d" d="M45.7,15.129a3.635,3.635,0,0,1-.693-.916,1.388,1.388,0,0,0-.651-.529c-.082-.02-.225-.143.122-.183a1.045,1.045,0,0,1,.408.041,2.628,2.628,0,0,1,1.731,1.65c.1.224.387.529.285.591-.061.081-.264-.041-.468.02a3.849,3.849,0,0,1-2.3-.02c-.387-.122-.468-.346-.326-.326.388-.041.794-.305,1.365-.387a.924.924,0,0,1,.529.061Z"/><path class="d" d="M41.691,13.765a1.744,1.744,0,0,0,1.141.814,1.648,1.648,0,0,0,1.364-.1,1.761,1.761,0,0,0-1.12-.814,1.781,1.781,0,0,0-1.385.1ZM12.524,50.734c0-2.308-1.632-3.864-4.171-3.956-2.4-.093-4.233-.093-4.233-1.8,0-1.585,1.6-1.878,2.848-1.878a4.581,4.581,0,0,1,4.356,3.556h.447V42.867h-.447c-.015.354,0,.847-.431.847-.569,0-1.647-1.139-4.079-1.139a3.744,3.744,0,1,0-.108,7.466c2.247.031,4.279.153,4.279,1.97,0,1.647-1.77,2.078-3.387,2.109-2.8.03-4.048-1.847-4.572-3.849H2.6v4.171h.431s.092-.846.6-.846c.939,0,1.339,1.139,4.033,1.139,3.187,0,4.864-1.863,4.864-4Zm11.206,3.71v-.554h-.985v-5a2.991,2.991,0,0,0-3.232-2.894,3.812,3.812,0,0,0-2.986,1.277v-4.4H12.878v.554h.939V53.889H12.8v.554h4.679v-.554h-.955V49.148a2.132,2.132,0,0,1,1.97-2.37,1.53,1.53,0,0,1,1.416,1.585v5.526H18.9v.554H23.73Zm8.641-4.171v-.6A3.825,3.825,0,0,0,28.2,45.854a4.178,4.178,0,0,0-4.479,4.51c0,2.925,2.109,4.372,4.649,4.372,1.632,0,3.679-.723,3.941-3.247H31.94a2.877,2.877,0,0,1-2.817,2.524c-2.4,0-2.709-1.8-2.709-3.741Zm-2.524-.538H26.414s-.093-3.387,1.755-3.387C30.17,46.347,29.847,49.733,29.847,49.733ZM40.692,47.84a1.761,1.761,0,0,0-1.678-1.878,3.244,3.244,0,0,0-2.494,1.385v-1.2H32.9v.539h.816v7.2H32.7v.554h4.71v-.554h-.985V50.272c0-1.846,1.047-3.786,2.525-3.786a.68.68,0,0,1,.6.293,1.252,1.252,0,0,0-1.417,1.277,1.311,1.311,0,0,0,1.309,1.231A1.406,1.406,0,0,0,40.692,47.84Zm10.3,4.572V51.78h-.43c0,.431,0,1.971-.662,1.971a.6.6,0,0,1-.646-.662V50.395c0-1.539.384-4.541-3.957-4.541-2.555,0-3.848,1.016-3.848,2.2a1.219,1.219,0,0,0,1.293,1.293,1.354,1.354,0,0,0,1.216-1.277,1.458,1.458,0,0,0-.831-1.262,2.8,2.8,0,0,1,1.355-.354,1.807,1.807,0,0,1,2,1.678c0,2.832-5.526.584-5.526,4.264,0,.97.554,2.34,2.709,2.34,2.125,0,2.525-.846,2.925-1.447.493.832.878,1.416,2.032,1.416,1.74,0,2.37-.816,2.37-2.293Zm-4.6-.169a1.938,1.938,0,0,1-1.477,1.709c-.755,0-1.248-.816-1.248-1.617,0-1.909,1.632-1.771,2.724-2.694v2.6Zm10.366.093v-.493h-.416c0,.6,0,1.878-1,1.878a.969.969,0,0,1-.939-1.093V46.685h1.539v-.539H54.4V43.268H54a3.183,3.183,0,0,1-3.033,2.879v.539h1.016v5.942a2.174,2.174,0,0,0,2.37,2.108,2.282,2.282,0,0,0,2.4-2.4Zm9.605-1.971c0-2.308-1.247-4.51-4.726-4.51a4.192,4.192,0,0,0-4.479,4.51c0,2.832,1.817,4.372,4.633,4.372,2.416,0,4.572-1.37,4.572-4.372Zm-2.617-.138c0,1.616-.308,3.924-2.048,3.924-1.832,0-2-2.863-2-3.725,0-1.4.293-4.048,2.14-4.048C63.4,46.377,63.741,48.487,63.741,50.226ZM77.4,54.443v-.554h-.923V48.856A2.951,2.951,0,0,0,73.218,45.9,3.584,3.584,0,0,0,70.2,47.3V46.147H66.552v.539h.94v7.2H66.475v.554h4.711v-.554H70.2V49.317c0-1.154.692-2.509,1.939-2.509a1.385,1.385,0,0,1,1.478,1.385v5.7H72.6v.554h4.8Z"/></g></g></svg>