<svg xmlns="http://www.w3.org/2000/svg" xmlns:xlink="http://www.w3.org/1999/xlink" width="80" height="80" viewBox="0 0 80 80"><defs><style>.a{fill:#fff;stroke:#707070;}.b{clip-path:url(#a);}.c{fill:#242220;}.d{fill:#ededec;}.e{fill:#d5d5d4;}.f{fill:#f6f6f5;}.g{fill:#9b2d35;}.h{fill:#333130;}.i{fill:#292624;}.j{fill:#fdf1d6;}.k{fill:#fefefe;}.l{fill:#dfc091;}.m{fill:#dfc092;}.n{fill:#422425;}.o{fill:#432627;}.p{fill:#432526;}.q{fill:#3c2424;}.r{fill:#482426;}.s{fill:#fbfbfb;}.t{fill:#262422;}.u{fill:#282625;}.v{fill:#2b2927;}.w{fill:#edecec;}</style><clipPath id="a"><rect class="a" width="80" height="80" transform="translate(887 2846)"/></clipPath></defs><g class="b" transform="translate(-887 -2846)"><g transform="translate(894.635 2846)"><path class="c" d="M37.309,60.184h-1.13c-.428-.034-.856.12-1.3.1-.736-.034-1.455.034-2.192.051-.942.017-1.9.068-2.842.12-1.164.068-2.329.137-3.493.24-2.192.171-4.383.36-6.558.7-2.688.411-5.342.993-8,1.592a2.635,2.635,0,0,1-.719.12.625.625,0,0,1-.616-.5,3.319,3.319,0,0,1,.017-1.164,44.1,44.1,0,0,1,.822-5.393c.5-2.311,1.044-4.589,1.729-6.849,0-.034.017-.051.017-.086.034-.171,0-.205-.154-.171a.952.952,0,0,0-.651.5c-.154.291-.291.6-.428.907-.531,1.284-.993,2.585-1.455,3.887-.479,1.318-.942,2.637-1.387,3.972-.36,1.079-.634,2.192-.925,3.287-.137.514-.291,1.044-.411,1.575-.051.24-.051.24.188.274l3.938.514c1.644.205,3.3.428,4.948.634,2.106.274,4.195.548,6.3.8,1.3.171,2.585.342,3.887.5a.489.489,0,0,1,.325.1c-.034.068-.086.051-.137.051h-4.76c-.479,0-.976-.017-1.455,0a16.074,16.074,0,0,1-2.551-.24c-.788-.086-1.575-.205-2.346-.308-.788-.1-1.575-.205-2.346-.308L11.3,64.789l-2.311-.308c-.788-.1-1.575-.205-2.38-.308L4.28,63.865l-2.311-.308c-.445-.051-.907-.1-1.353-.171-.257-.034-.325-.154-.325-.445,0-2.6,0-5.188-.017-7.79Q.2,33.191.137,11.232C.137,9.006.12,6.763.12,4.537V4.315C.086,3.7.12,3.065.1,2.448V.342C.1.205.12.086.291.034H.736C1.4.086,2.072.171,2.757.257c2.157.291,4.315.565,6.472.856,2.791.36,5.565.719,8.356,1.1a2.791,2.791,0,0,0,1.49-.223A24,24,0,0,1,25.7.223a15.622,15.622,0,0,1,5.565.342A20.166,20.166,0,0,1,37.72,3.322a16.7,16.7,0,0,1,2.226,1.712.676.676,0,0,0,.428.171c2.4.308,4.811.634,7.208.942l7.859,1.027c2.414.308,4.811.634,7.225.942.565.068,1.147.154,1.712.223.171.017.308.068.342.257v.291c-.171.479-.274.976-.411,1.455-1.181,4.469-2.346,8.938-3.527,13.406-1.164,4.469-2.346,8.921-3.51,13.389-1.164,4.417-2.311,8.818-3.476,13.235s-2.311,8.818-3.476,13.235c-.5,1.935-1.01,3.852-1.524,5.77a.358.358,0,0,1-.428.308c-.411-.051-.839-.12-1.267-.171l.257-.976a.245.245,0,0,1,.188-.051c.291.017.36-.034.428-.308.137-.548.291-1.079.428-1.627.36-1.387.736-2.774,1.1-4.144a.835.835,0,0,0,0-.411c-.634-2.38-1.233-4.76-1.815-7.14-.462-1.918-.942-3.852-1.4-5.77-.188-.788-.394-1.558-.6-2.346a1.211,1.211,0,0,0-.616-.822,2.288,2.288,0,0,0-.668-.274c-.308-.068-.411.034-.377.342.086.531.171,1.062.257,1.575.257,1.49.5,2.962.668,4.469q.18,1.541.308,3.082c.086.873.137,1.746.188,2.62.034.411.017.839.051,1.25.034.377.12.514.5.582a8.523,8.523,0,0,1,1.147.24,1.457,1.457,0,0,1,.291.1c.1.051.188.1.171.223a.219.219,0,0,1-.205.188,1.581,1.581,0,0,1-.634.017,7.446,7.446,0,0,0-.873-.034.463.463,0,0,1-.257-.051H43.764c-.017.017-.051.034-.068.051a11.724,11.724,0,0,1-2.192-.051c-.034,0-.051-.017-.086-.017-.548,0-1.1-.034-1.644.017-.736.068-1.455.017-2.192.034C37.48,60.235,37.394,60.235,37.309,60.184Z"/><path class="d" d="M.051,2.072V4.3H.017V2.072C.034,2.055.051,2.055.051,2.072Z"/><path class="e" d="M.051,2.072H.017V.257C.034.24.034.24.051.257Z"/><path class="f" d="M.051.257H.017C0,.1-.017-.051.223.017A.48.48,0,0,0,.051.257Z"/><path class="g" d="M22.31,65.937c.342,0,.685-.017,1.027-.017h3.8v-.034l-2.38-.308c-.685-.086-1.37-.188-2.038-.274l-2.072-.257-2.363-.308L16.2,64.481c-.582-.068-1.147-.154-1.729-.223s-1.181-.154-1.764-.223l-2.02-.257c-.582-.068-1.164-.154-1.746-.223-.445-.051-.907-.12-1.353-.171-.137-.017-.086-.086-.068-.154l.616-2.363c.325-1.233.685-2.466,1.1-3.664.8-2.294,1.609-4.606,2.517-6.866a4.165,4.165,0,0,1,.582-1.13,1.1,1.1,0,0,1,.7-.342c.154-.034.12.12.086.223-.086.308-.188.6-.274.907-.565,1.883-1.01,3.8-1.438,5.719-.274,1.233-.479,2.483-.668,3.733-.12.89-.205,1.781-.274,2.671a1.459,1.459,0,0,0,.051.548c.068.325.377.479.788.394,1.044-.223,2.072-.462,3.116-.685,1.575-.342,3.15-.668,4.743-.925,1.062-.188,2.14-.308,3.219-.428,1.01-.1,2-.205,3.013-.291l2.757-.205c.719-.051,1.438-.086,2.174-.12,1.113-.051,2.209-.1,3.322-.137.514-.017,1.01-.017,1.524-.034A6.87,6.87,0,0,1,36.2,60.2c-.171,0-.325.017-.5.017-.1,0-.137.034-.137.137V60.7c-.017,2.089-.034,4.178-.051,6.284-.086.086-.205.051-.308.034a1.971,1.971,0,0,0-1.849-1.044c-3.51.017-7.037.017-10.547.017A4.034,4.034,0,0,1,22.31,65.937Z"/><path class="c" d="M11.164,73.385c.308-.24.6-.462.873-.685,1.353-1.044,2.722-2.089,4.075-3.116.171-.137.36-.257.308-.514a.568.568,0,0,0-.5-.411c-.205-.034-.223-.12-.154-.291s.051-.411.171-.514.36-.034.531-.034c1.849,0,3.7,0,5.548-.017.171,0,.205.034.171.205-.068.36-.154.616-.616.668a2.226,2.226,0,0,0-1.113.634c-1.609,1.284-3.2,2.568-4.811,3.852-.137.1-.154.171-.051.342.89,1.37,1.781,2.74,2.705,4.092a3.079,3.079,0,0,0,1.267,1.164,1.432,1.432,0,0,0,.531.137c.1,0,.12.051.086.137v.017c-.051.223-.051.514-.205.651s-.445.051-.668.051c-1.01-.017-2.02.034-3.031-.051a3.453,3.453,0,0,1-2.62-1.4c-.907-1.233-1.866-2.448-2.654-3.767a1.161,1.161,0,0,0-.1-.154c-.1.394-.188.736-.291,1.1-.223.8-.445,1.609-.668,2.431-.1.394.051.685.5.89.308.137.308.137.223.462-.12.479-.12.479-.616.479H4.469c-.205,0-.24-.051-.171-.223a.217.217,0,0,0,.017-.1c.051-.325.137-.531.548-.6.531-.068.8-.531,1.01-.993a15.739,15.739,0,0,0,.753-2.466c.5-1.781.976-3.561,1.472-5.359a2.335,2.335,0,0,0,.068-.291.86.86,0,0,0-.7-1.062c-.137-.034-.188-.068-.137-.223.068-.188.051-.445.171-.582.137-.12.394-.034.6-.034,1.729,0,3.459,0,5.188-.017.205,0,.24.051.171.223v.034c-.051.308-.137.565-.531.651a1.011,1.011,0,0,0-.685.8c-.342,1.25-.685,2.483-1.027,3.715A.383.383,0,0,0,11.164,73.385Z"/><path class="c" d="M26.916,72.546h4.161c-.24.976-.479,1.918-.719,2.894a2.377,2.377,0,0,0-1.9-.634H26.4c-.1,0-.171.017-.205.137-.24.925-.5,1.832-.736,2.757a.882.882,0,0,0,.582,1.147c.137.051.154.12.12.24-.051.171-.086.342-.12.514-.017.12-.068.154-.188.154-1.7,0-3.373-.017-5.068,0-.137,0-.171-.017-.137-.171.394-1.421.788-2.859,1.181-4.28l1.49-5.393a.878.878,0,0,0-.7-1.25c-.1-.034-.1-.068-.086-.154.12-.651.12-.651.788-.651H33.354c.137,0,.188.017.154.188-.24.959-.479,1.9-.719,2.859-.017.086-.034.188-.171.154-.1-.034-.24.086-.308-.12a.979.979,0,0,0-.8-.616,1.807,1.807,0,0,0-.428-.034H27.755c-.1,0-.171,0-.205.137-.171.685-.36,1.37-.548,2.055C26.933,72.46,26.933,72.494,26.916,72.546Z"/><path class="c" d="M43.969,77.066c-.171.7-.36,1.353-.462,2.02-.068.394-.24.5-.6.565a20.723,20.723,0,0,1-4.606.325,8.156,8.156,0,0,1-3.972-1.147,4.785,4.785,0,0,1-1.883-6.1A7.38,7.38,0,0,1,35.408,69.4a11.021,11.021,0,0,1,4.606-1.575,13.132,13.132,0,0,1,5.1.308c.342.1.342.086.257.445l-.668,2.414c-.051.188-.394.291-.514.137a3.059,3.059,0,0,0-2.431-1.113,6.241,6.241,0,0,0-3.664.839,3.6,3.6,0,0,0-1.7,3.835,3.4,3.4,0,0,0,1.883,2.4,5.73,5.73,0,0,0,3.493.479A12.987,12.987,0,0,0,43.969,77.066Z"/><path class="g" d="M45.613,60.218a15.088,15.088,0,0,1,1.524.034.848.848,0,0,0,.291-.034c.068-.034.154-.051.154-.137a.165.165,0,0,0-.137-.154,3.652,3.652,0,0,0-.873-.24c-.223-.051-.462-.068-.685-.12a.455.455,0,0,1-.445-.5c-.034-.634-.051-1.25-.086-1.883-.051-.822-.1-1.627-.188-2.448-.068-.616-.1-1.233-.171-1.849-.068-.651-.154-1.284-.223-1.935-.12-1.01-.308-2.02-.462-3.031L44,46.024c-.051-.325-.017-.445.188-.5a.474.474,0,0,1,.223.017,1.808,1.808,0,0,1,1.233.8,4.408,4.408,0,0,1,.274.925l1.336,5.393c.582,2.363,1.147,4.726,1.764,7.071.205.77.394,1.524.6,2.294a.648.648,0,0,1,0,.257c-.514,1.952-1.027,3.921-1.541,5.873-.086.342-.171.394-.531.342h-.171a1.878,1.878,0,0,0-.394-1.438,1.772,1.772,0,0,0-.462-.411.363.363,0,0,1-.205-.325c-.12-1.181-.257-2.346-.394-3.527C45.784,61.947,45.7,61.091,45.613,60.218Z"/><path class="g" d="M37.309,60.184c1.387,0,2.774-.017,4.161,0,.753.017,1.49.017,2.243.034.051.068,0,.137.034.205a1.13,1.13,0,0,0,.017.24c.034.086,0,.171.034.257a1.13,1.13,0,0,0,.017.24.286.286,0,0,1-.017.205.159.159,0,0,0,.051.205v.068c.034.1,0,.205.034.291a.976.976,0,0,0,.017.223c.034.086,0,.171.034.257a.976.976,0,0,0,.017.223c.034.086,0,.171.034.257a1.13,1.13,0,0,0,.017.24.286.286,0,0,1-.017.205.187.187,0,0,0,.051.223v.068a.417.417,0,0,1,0,.205.156.156,0,0,0,.034.188v.1a.417.417,0,0,1,0,.205.156.156,0,0,0,.034.188v.1a.286.286,0,0,1-.017.205.159.159,0,0,0,.051.205V65.1a.286.286,0,0,1-.017.205.159.159,0,0,0,.051.205v.068c.034.171,0,.291-.171.342a1.321,1.321,0,0,1-.445-.051c-.068-.034-.154,0-.223-.034a.642.642,0,0,1-.188-.017c-.1-.034-.205.017-.308-.034h-.188a.241.241,0,0,0-.24-.034c-.137.017-.308.12-.411-.086a.976.976,0,0,0-.017-.223c-.034-.086,0-.171-.034-.257a.976.976,0,0,0-.017-.223c-.034-.086,0-.171-.034-.257a.642.642,0,0,0-.017-.188.284.284,0,0,1,0-.205.156.156,0,0,0-.034-.188v-.1a.286.286,0,0,1,.017-.205.159.159,0,0,0-.051-.205V63.54c-.034-.086,0-.171-.034-.257a.642.642,0,0,0-.017-.188c-.034-.086,0-.171-.034-.257a.976.976,0,0,0-.017-.223.2.2,0,0,1,.017-.171c.051-.086.017-.154-.051-.223v-.068c-.068-.1.1-.24-.034-.342v-.1c-.034-.086,0-.171-.034-.257a.7.7,0,0,0-.017-.188c-.034-.086,0-.171-.034-.257a.642.642,0,0,0-.017-.188c-.034-.086,0-.171-.034-.257v-.034c-.034-.291-.034-.291-.325-.291h-1.37c-.137,0-.171.034-.171.171.1,1.609.223,3.2.325,4.811.017.205.017.394.051.6.017.1,0,.137-.12.154a12.87,12.87,0,0,0-2.26.445c-.137.034-.12-.034-.137-.12-.034-1.062-.086-2.14-.12-3.2-.034-.907-.068-1.815-.086-2.705A.462.462,0,0,0,37.309,60.184Z"/><path class="h" d="M45.75,68.3a.535.535,0,0,1,.548-.565.563.563,0,0,1,.582.565.565.565,0,0,1-1.13,0Z"/><path class="i" d="M35.186,67c.086-.068.205-.017.308-.034.068.051.223,0,.223.068.017.1-.137.1-.205.154l-.205.1C35.254,67.187,35.22,67.084,35.186,67Z"/><path class="g" d="M41.983,65.714a.276.276,0,0,0,.394.034c.137-.086.205-.068.257.086H42.1C42.017,65.834,41.966,65.817,41.983,65.714Z"/><path class="g" d="M43.986,65.971c.068-.12.188-.188.171-.342a.608.608,0,0,1,.034.171C44.209,66.039,44.209,66.039,43.986,65.971Z"/><path class="g" d="M44.106,65.063c-.137-.034-.188-.12-.086-.24a.265.265,0,0,0,.051-.188A1.21,1.21,0,0,1,44.106,65.063Z"/><path class="g" d="M43.832,61.571c-.137-.034-.188-.12-.086-.24.051-.051.034-.12.051-.188A1.807,1.807,0,0,1,43.832,61.571Z"/><path class="g" d="M41.812,63.625c.137.034.188.12.086.24-.051.051-.034.12-.051.188A1.21,1.21,0,0,1,41.812,63.625Z"/><path class="g" d="M43.986,63.591c-.137-.034-.188-.12-.086-.24.051-.051.034-.12.051-.188A1.179,1.179,0,0,1,43.986,63.591Z"/><path class="g" d="M44.158,65.56c-.137-.034-.188-.12-.086-.24a.265.265,0,0,0,.051-.188A1.807,1.807,0,0,1,44.158,65.56Z"/><path class="g" d="M41.692,62.221c.137.034.205.12.086.24a.239.239,0,0,0-.051.154A1,1,0,0,1,41.692,62.221Z"/><path class="g" d="M44.072,64.533c-.1-.017-.154-.068-.086-.171a.309.309,0,0,0,.051-.205A.914.914,0,0,1,44.072,64.533Z"/><path class="g" d="M44.038,64.036c-.1-.017-.154-.068-.086-.171A.309.309,0,0,0,44,63.659,1.4,1.4,0,0,1,44.038,64.036Z"/><path class="g" d="M41.863,64.156c.1.017.154.068.086.171a.309.309,0,0,0-.051.205A.914.914,0,0,1,41.863,64.156Z"/><path class="g" d="M41.658,61.81c.12.017.154.086.086.171a.289.289,0,0,0-.051.171A.757.757,0,0,1,41.658,61.81Z"/><path class="g" d="M43.866,61.947c-.068-.086-.017-.205-.034-.291A.8.8,0,0,1,43.866,61.947Z"/><path class="g" d="M42.822,65.851c.1,0,.205-.034.308.034A.948.948,0,0,1,42.822,65.851Z"/><path class="g" d="M41.606,61.451c.068.086.017.171.034.257A.666.666,0,0,1,41.606,61.451Z"/><path class="g" d="M43.9,62.427c-.068-.086-.017-.171-.034-.257A.449.449,0,0,1,43.9,62.427Z"/><path class="g" d="M43.935,62.923c-.068-.086-.017-.171-.034-.257A.342.342,0,0,1,43.935,62.923Z"/><path class="g" d="M41.743,62.838c.068.086.017.171.034.257A.321.321,0,0,1,41.743,62.838Z"/><path class="g" d="M41.778,63.3c.068.086.017.171.034.257A.666.666,0,0,1,41.778,63.3Z"/><path class="g" d="M43.781,60.92c-.068-.086-.017-.171-.034-.257A.585.585,0,0,1,43.781,60.92Z"/><path class="g" d="M41.9,64.738c.068.086.017.171.034.257A.666.666,0,0,1,41.9,64.738Z"/><path class="g" d="M41.572,60.988c.068.086.017.171.034.257A.585.585,0,0,1,41.572,60.988Z"/><path class="g" d="M41.949,65.235c.068.086.017.171.034.257A.342.342,0,0,1,41.949,65.235Z"/><path class="g" d="M41.538,60.543c.068.086.017.171.034.257A.342.342,0,0,1,41.538,60.543Z"/><path class="g" d="M43.319,65.885c.068,0,.154-.034.223.034A.47.47,0,0,1,43.319,65.885Z"/><path class="g" d="M43.729,60.423c-.051-.068-.017-.137-.034-.205h.034Z"/><path class="g" d="M41.846,42.634a2.457,2.457,0,0,1-.5-.616,9.212,9.212,0,0,0-1.233-1.592.5.5,0,0,1-.086-.548A21.057,21.057,0,0,0,40.6,37.6c.086-.462.154-.907.223-1.37a.936.936,0,0,1,.668-.788,1.057,1.057,0,0,0,.788-1.113,7.009,7.009,0,0,1,1.01-3.493,16.623,16.623,0,0,0,1.849-4.948,5.013,5.013,0,0,0-.068-2.414,2.5,2.5,0,0,0-.531-1.01,1.137,1.137,0,0,1-.171-1.336,10.629,10.629,0,0,0,.942-3.15,4.614,4.614,0,0,0-.034-1.455.4.4,0,0,0-.154-.274,1.274,1.274,0,0,1-.531-1.01A16.633,16.633,0,0,0,43.3,9.948a13.9,13.9,0,0,0-2.174-3.578.129.129,0,0,1-.051-.137l1.986.257c.7.086,1.387.188,2.089.274l2.055.257c.7.086,1.387.188,2.089.274l2.74.36c.788.1,1.575.205,2.363.291l2.74.36,2.4.308c.788.1,1.575.205,2.38.308.445.051.89.12,1.336.171a.311.311,0,0,1,.291.428c-.325,1.25-.651,2.483-.976,3.715l-1.284,4.828-2.209,8.373-2.414,9.194c-.7,2.637-1.387,5.274-2.089,7.927l-.873,3.287c-.051.188-.137.188-.291.154-.753-.171-1.507-.342-2.26-.531-1.3-.308-2.585-.6-3.887-.907a.631.631,0,0,1-.394-.205,3.324,3.324,0,0,0-1.181-.873c-1.13-.6-2.311-1.079-3.442-1.644l-.257-.154C41.9,42.685,41.863,42.668,41.846,42.634Z"/><path class="g" d="M15.6,42.7c-.394.8-.7,1.644-1.027,2.483a1.284,1.284,0,0,1-.839.839c-.445.154-.873.342-1.336.479a3.28,3.28,0,0,0-1.353.839,2.306,2.306,0,0,1-1.233.668c-1.7.411-3.373.89-5.034,1.455-1.233.428-2.448.873-3.63,1.4-.017.017-.034.017-.034,0,0-5.719.017-11.455-.017-17.173-.051-8.647,0-17.293-.051-25.94-.017-2.072,0-4.126-.017-6.2,0-.36.1-.462.445-.428.582.068,1.181.154,1.764.223.7.086,1.387.171,2.089.274l2.055.257c.7.086,1.387.188,2.089.274.788.1,1.575.205,2.38.308.7.086,1.387.171,2.089.274.668.086,1.353.171,2.072.274a2.3,2.3,0,0,1-.6.171c-.5.12-1.01.223-1.524.342s-.7.479-.565,1.062a2.189,2.189,0,0,1-.017,1.4,3.31,3.31,0,0,1-.531.839A13.327,13.327,0,0,1,9.948,9.468a6.2,6.2,0,0,1-.822.428,1.31,1.31,0,0,0-.736,1.746,7.894,7.894,0,0,0,.7,1.49,4.325,4.325,0,0,1,.514,2.534,12.95,12.95,0,0,1-.856,3.219,2.38,2.38,0,0,1-.188.36,1.339,1.339,0,0,0,0,1.541,8.244,8.244,0,0,0,1.13,1.421c.257.274.274.394.086.7a2.96,2.96,0,0,0-.342,1.318,5.348,5.348,0,0,0,.223,1.8,15.225,15.225,0,0,0,2,4.469c.12.171.257.342.377.514a2.017,2.017,0,0,1,.205,1.4,2.988,2.988,0,0,0,.188,1.849,2.668,2.668,0,0,0,1.113,1.147,1.75,1.75,0,0,1,.873,1.3,12.393,12.393,0,0,0,1.4,3.664c.12.188.205.394.325.6a.442.442,0,0,1,0,.479,10.763,10.763,0,0,0-.548,1.2C15.615,42.651,15.632,42.685,15.6,42.7Z"/><path class="j" d="M22.7,9.76a7.884,7.884,0,0,1,4.64.685c.068.034.12.051.188.086a.521.521,0,0,0,.651-.086,9.79,9.79,0,0,1,.788-.634.331.331,0,0,0,.12-.428,2.629,2.629,0,0,1,.5-.36,8.042,8.042,0,0,1,1.181-.668A2.709,2.709,0,0,1,32.6,8.184a18.809,18.809,0,0,1,3.578,1.233,7.358,7.358,0,0,1,2.055,1.421,7.24,7.24,0,0,1,1.678,2.483c.051.12.137.24.051.36-.137.051-.137.171-.137.291l.1,2.055a1.758,1.758,0,0,1-.017.428,3,3,0,0,0,.479,1.8,7.25,7.25,0,0,1,.685,1.3,6.528,6.528,0,0,1,.24,1.815c0,.154-.1.223-.308.188-.462-.086-.925-.154-1.387-.257a10.437,10.437,0,0,0-1.935-.188c-1.455-.051-2.894-.086-4.349-.034a6.458,6.458,0,0,0-2.774.582,5.693,5.693,0,0,0-.856.565.9.9,0,0,1-.8.171,3.217,3.217,0,0,0-1.8.068.936.936,0,0,1-.89-.171,11.731,11.731,0,0,0-1.2-.856,6.084,6.084,0,0,0-2.431-.736c-1.2-.12-2.4-.205-3.6-.205-.068-.068-.034-.154-.017-.24a18.755,18.755,0,0,0,.257-1.969,7.906,7.906,0,0,1,.308-1.4c.188-.753.411-1.524.651-2.26a13.555,13.555,0,0,1,1.746-3.7c.086-.12.171-.24.274-.36A1.377,1.377,0,0,0,22.7,9.76Z"/><path class="j" d="M36.881,42.719a14.6,14.6,0,0,1-3.065,2.448c-.274.171-.565.308-.856.462a.908.908,0,0,1-1.1-.188l-.291-.291c-.086-.12-.051-.257-.068-.377a8,8,0,0,0-.7-2.277,2.65,2.65,0,0,1-.205-1.2,5.751,5.751,0,0,1,.137-1.216c.017-.051.051-.137,0-.171-.068-.051-.12.017-.188.051a.538.538,0,0,0-.223.325,1.467,1.467,0,0,1-.308.685.358.358,0,0,1-.394.137.37.37,0,0,1-.257-.342c-.017-.137,0-.257-.017-.394-.017-.308-.154-.445-.462-.377a6.879,6.879,0,0,1-1.455.017.228.228,0,0,1-.137-.051.8.8,0,0,0-.685-.7,1.245,1.245,0,0,1-.531-.24c-.188-.154-.188-.274,0-.411a2.765,2.765,0,0,1,1.969-.462,9.324,9.324,0,0,0,3.578-.12c.479-.137.959-.274,1.455-.428a.5.5,0,0,1,.411.051,1.591,1.591,0,0,0,.171.086,1,1,0,0,1,.651,1.079,4.236,4.236,0,0,0,.12,1.387c.086.325.257.36.5.137a1.886,1.886,0,0,0,.462-1.027,7.392,7.392,0,0,1,.291-1.216,1.413,1.413,0,0,1,.342-.548,2.957,2.957,0,0,0,.89-1.866c.017-.188.034-.394.051-.6a.474.474,0,0,0,.017-.154.436.436,0,0,1,.171-.377,1.466,1.466,0,0,0,.325-1.815,2.564,2.564,0,0,0-.445-.616c-.8-.77-1.524-1.592-2.26-2.431a2.988,2.988,0,0,0-2.106-1.079,1.364,1.364,0,0,0-.959.291.325.325,0,0,0-.137.257,3.3,3.3,0,0,0,.017.411,3.169,3.169,0,0,1,.137.8.487.487,0,0,1-.188.394,5.05,5.05,0,0,1-2.174.993,3.16,3.16,0,0,1-2.14-.479.249.249,0,0,1-.1-.154,5.678,5.678,0,0,1-.36-1.764,4.025,4.025,0,0,1,.154-.907,1.457,1.457,0,0,1,.1-.291,5.574,5.574,0,0,0,.342-1.986c.034-.685.137-1.353.223-2.038a.994.994,0,0,1,.12-.548,1.428,1.428,0,0,1,.925.034.852.852,0,0,1,.514.616,3.151,3.151,0,0,0,.531,1.284c.394.5.462.5.976.12.308-.223.325-.36.137-.7-.017-.034-.051-.086-.068-.12-.051-.12-.137-.257-.017-.36.1-.086.24-.034.36.034a7.983,7.983,0,0,0,.856.428,4.8,4.8,0,0,0,2.6.188c.342-.068.668-.12,1.01-.188a.672.672,0,0,1,.77.394,1.752,1.752,0,0,0,.24.377c-.36.188-.36.188-.205.6a1.266,1.266,0,0,1-.137,1.079,3.374,3.374,0,0,1-.531.668c-.086.086-.171.171-.154.291a.527.527,0,0,0,.514.514c.274,0,.531-.086.8-.1A3.6,3.6,0,0,0,38.8,26.453c.257-.788.428-1.609.616-2.431a.805.805,0,0,1,.428-.565,7.719,7.719,0,0,1,1.079-.5c.257-.1.377-.034.479.24a2.4,2.4,0,0,1,.1.7c.034.668.068,1.353.086,2.038a.506.506,0,0,0,.034.223.159.159,0,0,0,.205.1,1.054,1.054,0,0,0,.651-1.318c-.051-.1-.12-.205-.188-.325a.685.685,0,0,1,.325-1.01.674.674,0,0,1,.976.308,2.4,2.4,0,0,1,.188,1.2,9.92,9.92,0,0,1-.89,3.578c-.291.7-.685,1.353-.993,2.038a11.859,11.859,0,0,0-.634,1.7,1.325,1.325,0,0,1-.12.274.242.242,0,0,1-.257.137.279.279,0,0,1-.223-.188c-.017-.051-.034-.12-.051-.171-.017-.068-.017-.171-.1-.171-.068,0-.12.086-.154.154a4.551,4.551,0,0,1-.719,1.164.877.877,0,0,0-.137.548,19.111,19.111,0,0,1-.137,2.431A11.3,11.3,0,0,1,37.463,42c-.154.205-.325.411-.479.616A.581.581,0,0,1,36.881,42.719Z"/><path class="k" d="M39.963,13.7a4.086,4.086,0,0,0-.634-1.387,7.7,7.7,0,0,0-1.1-1.37,6.984,6.984,0,0,0-1.609-1.216A17.716,17.716,0,0,0,32.6,8.253a3.117,3.117,0,0,0-2.431.479c-.377.205-.685.479-1.079.668a6.892,6.892,0,0,0-1.4-1.13,9.672,9.672,0,0,0-3.938-1.592,13.463,13.463,0,0,0-3.8-.034,20.6,20.6,0,0,0-2.243.411,1.322,1.322,0,0,1-.257.034.3.3,0,0,1-.257-.137c-.068-.1.017-.171.068-.24a3.34,3.34,0,0,1,.7-.6,12.036,12.036,0,0,1,3.715-1.866c.034-.017.086-.017.12-.034a.313.313,0,0,0,.188-.308c-.017-.154-.137-.205-.257-.223a4.419,4.419,0,0,0-.822-.051c-.137,0-.308.051-.36-.1-.051-.171.12-.257.223-.325a4.881,4.881,0,0,1,1.592-.685,19.343,19.343,0,0,1,5.582-.839A16.506,16.506,0,0,1,34.4,3.133a14.82,14.82,0,0,1,3.887,2.38,13.621,13.621,0,0,1,4.452,7.5,19,19,0,0,1,.325,5.393,3.989,3.989,0,0,1-.137.788.716.716,0,0,1-.068.171c-.051.1-.12.24-.257.223-.137,0-.171-.137-.205-.257-.274-.822-.582-1.644-.907-2.431-.394-.976-.822-1.952-1.3-2.894C40.134,13.852,40.082,13.749,39.963,13.7Z"/><path class="k" d="M39.055,42.668c.051-.1.12-.205.171-.308.086-.154.171-.154.291-.034a2.553,2.553,0,0,1,.257.342c.017.017.017.034.034.034a4.569,4.569,0,0,1,.377,1.8,18.388,18.388,0,0,1-.925,6.25A27.331,27.331,0,0,1,37.583,55.2c-.068.137-.171.308-.017.394s.257-.086.342-.188a8.542,8.542,0,0,0,.959-1.541A32.1,32.1,0,0,0,41.743,45.9c.137-.068.12.051.137.12.034.205.051.428.086.634a39.625,39.625,0,0,1,.205,5.873c-.017.993-.051,1.986-.086,2.979-.017.719-.086,1.438-.137,2.14l-.1,1.284c-.017.291-.051.325-.342.291-2.4-.086-4.794-.154-7.208-.205C33.4,59,32.532,59,31.641,58.985c-.36,0-.394-.051-.411-.411a14.049,14.049,0,0,0-.89-4.52c-.017-.034-.017-.068-.034-.1.086-.034.137.051.188.086q.591.565,1.13,1.181a9.876,9.876,0,0,0,1.883,1.592,1.286,1.286,0,0,0,1.575.034l.1-.051c.086-.068.086-.137.051-.24a2.779,2.779,0,0,0-.377-.7c-.582-.839-1.233-1.609-1.866-2.4a1.2,1.2,0,0,1-.137-.171c-.034-.068-.137-.137-.068-.223a.216.216,0,0,1,.223-.051c.445.051.89.12,1.318.154a1.976,1.976,0,0,0,.445.017.819.819,0,0,0,.856-.822c.034-.736.034-1.472.034-2.209a2.762,2.762,0,0,0,0-.377.7.7,0,0,0-.6-.753,5.276,5.276,0,0,0-1.558-.1,8.733,8.733,0,0,0-1.147.137c-.1.017-.257.086-.291-.034-.051-.137.12-.188.205-.24.36-.205.736-.411,1.1-.634a16.159,16.159,0,0,0,4.9-4.366,6.541,6.541,0,0,0,.685-1.1C39.038,42.719,39.021,42.685,39.055,42.668Z"/><path class="k" d="M22.7,58.968c-1.815.068-3.63.137-5.428.223l-1.849.1c-.223.017-.445.017-.651.017a.669.669,0,0,1-.736-.634,10.737,10.737,0,0,1-.137-2.346c.051-1.421.137-2.825.325-4.229a15.48,15.48,0,0,1,.291-1.746c.034-.1.086-.1.12-.017a3.43,3.43,0,0,1,.171.445c.171.548.36,1.1.565,1.627a12.993,12.993,0,0,0,1.49,2.757c.257.377.548.719.788,1.113a4.4,4.4,0,0,0,.582.685,6.739,6.739,0,0,0,1.1,1.113,1.277,1.277,0,0,0,1.627-.188.849.849,0,0,0,.137-.342.9.9,0,0,0-.205-.582,20.354,20.354,0,0,1-2.192-3.9,22.359,22.359,0,0,1-1.25-4.811,8.385,8.385,0,0,1,.034-2.534c.1-.017.154.068.205.12.685.7,1.4,1.353,2.089,2.055a15.976,15.976,0,0,0,1.592,1.25c.068.051.171.068.137.188a1.041,1.041,0,0,0-.411.257.95.95,0,0,1-.377.1.989.989,0,0,0-.839.959,8.925,8.925,0,0,0,.274,2.688c.017.051.034.086.051.137a1.212,1.212,0,0,0,1.25.822c.582,0,1.164-.051,1.746-.1.205-.017.394-.017.6-.051a.193.193,0,0,1,.188.051,7.857,7.857,0,0,0-1.1,1.866c-.034.1-.086.223-.12.325-.034.086-.051.171.034.223s.137-.017.188-.068a2.981,2.981,0,0,0,.205-.24,12.668,12.668,0,0,1,2.089-2.192.7.7,0,0,1,.445-.12c.137,0,.188.086.1.188A21.9,21.9,0,0,0,24.3,56.759c-.36.582-.736,1.164-1.13,1.729a3.875,3.875,0,0,0-.223.342A.424.424,0,0,1,22.7,58.968Z"/><path class="k" d="M27.292,39.963a4.224,4.224,0,0,1,.8.034,2.459,2.459,0,0,0,.788-.068.389.389,0,0,1,.514.394v.411a.321.321,0,0,0,.205.325.29.29,0,0,0,.36-.137,1.44,1.44,0,0,0,.291-.685.707.707,0,0,1,.411-.445c.12-.017.188.017.137.154a4.889,4.889,0,0,0-.171,1.318,3.473,3.473,0,0,0,.394,1.644,5.52,5.52,0,0,1,.531,2.226c-.171.017-.257.12-.24.325.017.137.051.291.068.428a1.954,1.954,0,0,1-.445,1.524c-.274.411-.616.77-.873,1.181a2.745,2.745,0,0,0-.479,1.353c0,.137-.086.188-.205.188a.632.632,0,0,1-.462-.188,14.47,14.47,0,0,1-3-3.219,3.3,3.3,0,0,1-.377-2.654c.12-.462.257-.925.377-1.387-.017-.017-.017-.017-.017-.034l.017-.017a4.316,4.316,0,0,0,.034-2.14c-.017-.1-.12-.24.034-.308.12-.068.24.034.325.12a4.5,4.5,0,0,1,.514.753c.068.1.12.257.257.24.12-.034.12-.188.154-.308A2.587,2.587,0,0,0,27.292,39.963Z"/><path class="k" d="M1.746,62.615a.334.334,0,0,1-.137-.017c-.377-.034-.445-.12-.445-.5,0-3.219-.017-6.421-.017-9.64.017-.051.068-.034.1-.051.788-.274,1.558-.531,2.346-.8.428-.154.873-.291,1.284-.462a2.5,2.5,0,0,1,2.072.068c.051.068,0,.12-.034.171a14.648,14.648,0,0,0-1.25,2.74c-.308.77-.582,1.575-.839,2.363a3.047,3.047,0,0,1-.205.5c-.548,1.1-1.1,2.174-1.627,3.27-.342.719-.7,1.421-1.044,2.14C1.866,62.461,1.849,62.564,1.746,62.615Z"/><path class="k" d="M50.544,58.506c-.411-1.4-.822-2.757-1.233-4.109-.634-2.106-1.284-4.212-1.918-6.318-.051-.171-.086-.342-.12-.514-.034-.223.051-.342.274-.36a2.777,2.777,0,0,1,.839.137c1.558.325,3.116.651,4.674.959.171.034.171.086.137.223q-1.258,4.777-2.534,9.554C50.63,58.2,50.6,58.334,50.544,58.506Z"/><path class="k" d="M12.225,19.416a33.375,33.375,0,0,1,.342-3.9,2.942,2.942,0,0,0-.308-1.935c-.188-.325-.36-.668-.514-.993a.378.378,0,0,1,.36-.565,5.587,5.587,0,0,0,2.979-.907c.925-.531,1.781-1.2,2.722-1.661A6.269,6.269,0,0,1,20.563,8.7a1.054,1.054,0,0,1,.325.034c.137.051.154.154.034.24a1.277,1.277,0,0,1-.205.12,7.471,7.471,0,0,0-3.681,3.39,4.565,4.565,0,0,1-1.3,1.558,3.162,3.162,0,0,0-1.113,1.832,17.1,17.1,0,0,0-.822,5.171,1.282,1.282,0,0,1-.034.36.608.608,0,0,1-.068.154,1.811,1.811,0,0,1-1.01.36.34.34,0,0,1-.205-.274,5.542,5.542,0,0,1-.205-1.062A8.7,8.7,0,0,1,12.225,19.416Z"/><path class="k" d="M34.381,35.134c-1.1-.086-2.192-.205-3.287-.291a26.51,26.51,0,0,0-6.986.274,3.22,3.22,0,0,1-1.147.034.95.95,0,0,1-.548-.325c-.154-.188-.12-.291.1-.394.171-.086.36-.154.531-.223a2.832,2.832,0,0,0,.925-.685c.12-.137.24-.257.36-.394a1.51,1.51,0,0,1,1.849-.291,5.058,5.058,0,0,0,2.4.634,1.259,1.259,0,0,0,1.147-.548,1.277,1.277,0,0,1,.8-.531,3.654,3.654,0,0,0,1.336-.736.517.517,0,0,1,.736,0,3.38,3.38,0,0,1,.736.822c.223.325.428.651.651.976a2.139,2.139,0,0,0,1.181.822.447.447,0,0,1,.137.051.293.293,0,0,1,.068.514A1.233,1.233,0,0,1,34.381,35.134Z"/><path class="j" d="M18.766,28.371c-.274-.205-.6-.36-.856-.582a3.946,3.946,0,0,1-1.13-1.661.345.345,0,0,1,.171-.462h.017a.749.749,0,0,1,1.147.1.728.728,0,0,0,.394.24.475.475,0,0,0,.582-.154,3.068,3.068,0,0,1,.976-.839,2.64,2.64,0,0,1,1.661-.171A5.422,5.422,0,0,0,23.389,25a3.779,3.779,0,0,0,.6-.137c.086-.034.154-.068.24-.1.086-.017.171-.051.24.051.051.086,0,.154-.051.223-.137.154-.274.308-.394.462a2.616,2.616,0,0,1-.873.36c-.308.086-.411.205-.342.514a1.306,1.306,0,0,1-.188.976,2.286,2.286,0,0,1-1.233.993c-.1.034-.205.051-.223.171a.361.361,0,0,0,.325.514,2.2,2.2,0,0,0,.668-.051,5.146,5.146,0,0,0,1.13-.257c.051-.017.12-.051.171,0a2.913,2.913,0,0,0-.959,1.575.407.407,0,0,1-.291.325,10.953,10.953,0,0,0-1.113.5.416.416,0,0,1-.531-.188,11.04,11.04,0,0,1-.839-1.524,1.542,1.542,0,0,1-.137-.479.309.309,0,0,0-.24-.291A1.178,1.178,0,0,1,18.766,28.371Z"/><path class="l" d="M1.746,62.615c.753-1.524,1.49-3.048,2.26-4.554a25.444,25.444,0,0,0,1.284-3.082,24.193,24.193,0,0,1,1.233-3.013c.12-.257.274-.479.411-.736a8.421,8.421,0,0,1,1.027.394.7.7,0,0,1,.274.77,5.771,5.771,0,0,1-.394,1.027c-1.25,2.911-2.5,5.821-3.578,8.818-.068.188-.154.36-.24.548-.034.086-.068.137-.171.12C3.15,62.8,2.448,62.735,1.746,62.615Z"/><path class="l" d="M22.7,9.76c.068.36-.205.582-.394.8a8.9,8.9,0,0,0-1.318,2.14A30.688,30.688,0,0,0,19.4,17.738a4.939,4.939,0,0,0-.12,1.01,15.086,15.086,0,0,1-.257,1.764c-.736.034-1.472.086-2.209.12-.223.017-.411-.1-.411-.308a3.269,3.269,0,0,1,.051-1.079.65.65,0,0,1,.36-.479c.616-.274.736-.8.822-1.4a12.316,12.316,0,0,1,2.02-5.445A5.994,5.994,0,0,1,21.18,10.29,2.967,2.967,0,0,1,22.7,9.76Z"/><path class="l" d="M22.824,42.634a5.094,5.094,0,0,1-2.568-1.764,10.355,10.355,0,0,1-2.089-4.554,2.214,2.214,0,0,1,.634-2.055,1.336,1.336,0,0,1,.993-.342c.274,0,.428.223.445.548a17.083,17.083,0,0,0,.856,4.623,3.387,3.387,0,0,0,.548,1.044c.223.291.411.257.548-.068.1-.223.188-.445.291-.651a.314.314,0,0,1,.308-.24c.171,0,.188.154.223.274.188.736.36,1.472.6,2.209.051.154.12.325.171.479a.424.424,0,0,1-.12.5c-.034.068-.12.034-.171.068H23.1C23.012,42.668,22.892,42.719,22.824,42.634Z"/><path class="l" d="M41.486,59.242c.274-.034.274-.034.291-.308.068-.873.137-1.764.188-2.637l.051-.77c.017-.873.017-1.746.051-2.62.051-1.164.034-2.329.034-3.493-.017-.822-.1-1.644-.188-2.466-.034-.308-.068-.616-.086-.925,0-.034.034-.12-.068-.1l.154-.822c.051-.274.188-.325.428-.171a1.437,1.437,0,0,1,.6,1.044c.1.514.12,1.044.171,1.558.051.634.1,1.284.154,1.918.034.531.068,1.062.086,1.592.1,2,.154,4.007.188,6.01.017.548.017,1.1.017,1.644-.017.394-.1.565-.565.582A14.645,14.645,0,0,1,41.486,59.242Z"/><path class="l" d="M21.043,57.547c.068.274-.12.428-.308.565a1.365,1.365,0,0,1-1.644-.12,10.506,10.506,0,0,1-1.181-1.284,18.233,18.233,0,0,1-2.4-3.733c-.325-.7-.548-1.455-.8-2.192-.051-.137-.1-.274-.154-.428-.034-.1-.051-.034-.086-.017a7.155,7.155,0,0,1,.257-1.044.987.987,0,0,1,.89-.548c.154.017.205.137.257.257.462,1.284.959,2.568,1.49,3.835A17.086,17.086,0,0,0,19.3,56.057a7.5,7.5,0,0,0,1.233,1.421c.051.051.1.086.154.137C20.889,57.752,20.94,57.735,21.043,57.547Z"/><path class="l" d="M21.471,49.311a3.37,3.37,0,0,0-.736-.565,13.185,13.185,0,0,1-1.644-1.438c-.531-.548-1.1-1.062-1.644-1.592a2.407,2.407,0,0,1,.428-1.3c.137-.188.274-.188.411-.017a18.5,18.5,0,0,0,4.948,4.058,2.815,2.815,0,0,1,.377.24c.086.068.171.171.137.274-.034.12-.154.1-.257.12-.411.034-.822,0-1.233.051C22,49.191,21.745,49.26,21.471,49.311Z"/><path class="l" d="M31.573,29.6a.742.742,0,0,1-.068-.325c-.017-.291.308-.6.685-.651a2.789,2.789,0,0,1,2.226.7,14.3,14.3,0,0,1,1.37,1.507c.445.479.925.907,1.353,1.387a1.7,1.7,0,0,1,.479,1.609,1.287,1.287,0,0,1-.462.753.417.417,0,0,0-.188.411.131.131,0,0,1-.034.086c-.034-.411.017-.839-.051-1.25a.99.99,0,0,0-.582-.856,4.361,4.361,0,0,1-1.866-1.7A5.709,5.709,0,0,0,33.1,29.758a2.956,2.956,0,0,0-1.13-.514C31.658,29.21,31.59,29.279,31.573,29.6Z"/><path class="l" d="M23.936,54.174l-1.918.154a3.661,3.661,0,0,1-1.062-.034,1.182,1.182,0,0,1-.873-.907,6.152,6.152,0,0,1-.24-1.472c-.017-.36-.068-.719-.051-1.079a1.178,1.178,0,0,1,1.284-1.25,1.656,1.656,0,0,0-.086.582c0,.719.017,1.438-.034,2.157s.428.959.959,1.044a12.369,12.369,0,0,0,2.106-.051c.034,0,.068-.017.1-.017.137,0,.291-.017.36.1s-.051.205-.12.308C24.21,53.849,24.108,54.037,23.936,54.174Z"/><path class="l" d="M18.766,28.371a5.944,5.944,0,0,0,.77.291.177.177,0,0,1,.12.188,3.4,3.4,0,0,0,.531,1.318c.12.223.291.428.394.668a.506.506,0,0,0,.531.291c-.291.205-.582.428-.89.616a1.16,1.16,0,0,1-1.472-.1,5.8,5.8,0,0,1-1.7-2.74c-.034-.1-.051-.205.051-.274s.188,0,.274.051a3.138,3.138,0,0,0,.651.394c.188.086.377.154.548,0A.685.685,0,0,0,18.766,28.371Z"/><path class="l" d="M22.7,58.968c.034-.034.086-.051.1-.086.8-1.233,1.627-2.483,2.311-3.784a3.738,3.738,0,0,1,.651-.976c.017-.017.017-.051.051-.086a1.509,1.509,0,0,0-.565.068,5.478,5.478,0,0,1,1.507-.993c.1-.034.223-.12.325-.017a.315.315,0,0,1,.034.342,5.618,5.618,0,0,1-.342.89A27.879,27.879,0,0,1,24.5,58.317a1.567,1.567,0,0,1-.394.428.837.837,0,0,1-.531.188A4.839,4.839,0,0,1,22.7,58.968Z"/><path class="l" d="M35.2,56.811a1.266,1.266,0,0,1-1.438.223,9.2,9.2,0,0,1-2.157-1.746c-.377-.428-.788-.839-1.181-1.25a.725.725,0,0,0-.12-.086c-.12-.24-.24-.479-.36-.736a.209.209,0,0,1,0-.223.212.212,0,0,1,.257-.051,2.771,2.771,0,0,1,.308.171,20.581,20.581,0,0,1,3.013,2.294,15.359,15.359,0,0,1,1.318,1.267A.476.476,0,0,0,35.2,56.811Z"/><path class="l" d="M27.686,23.611c-.051.411-.1.8-.137,1.216-.051.462-.12.925-.137,1.387a6.258,6.258,0,0,1-.342,2.02,3.222,3.222,0,0,0-.017,2.4c.086.223.12.445.188.668a2.76,2.76,0,0,1-1.336-1.7,1.483,1.483,0,0,1,.1-.8c.137-.514.325-1.01.445-1.524a4.251,4.251,0,0,0,.1-.925,10.866,10.866,0,0,1,.086-1.49,2.471,2.471,0,0,1,.428-.942A.731.731,0,0,1,27.686,23.611Z"/><path class="k" d="M21.146,28.491c-.068-.12.034-.137.12-.171a2.209,2.209,0,0,0,1.472-1.336.989.989,0,0,0,.034-.548c-.068-.394.017-.548.394-.651a2.158,2.158,0,0,0,.719-.274c.034-.017.086-.086.137-.017a1.306,1.306,0,0,0,.531.839c.12.068.051.171.034.257a2.292,2.292,0,0,1-1.079,1.438,4.105,4.105,0,0,1-2.157.514C21.283,28.542,21.214,28.559,21.146,28.491Z"/><path class="k" d="M28.748,36.35c.89.017,1.764.068,2.637.154.1.017.24,0,.24.137.017.12-.137.137-.223.154a9.3,9.3,0,0,1-2.483.411c-.479.017-.959.051-1.438.068a1.843,1.843,0,0,1-1.267-.462.209.209,0,0,1-.1-.205c.017-.1.12-.1.205-.12A22.886,22.886,0,0,1,28.748,36.35Z"/><path class="l" d="M21.146,28.491a4.517,4.517,0,0,0,2.311-.5,2.185,2.185,0,0,0,1.113-1.558v-.1a.994.994,0,0,0,.616-.325c.051-.034.1-.12.171-.086s.051.12.051.205a3.56,3.56,0,0,1-1.472,2.311l-.462.308a8.961,8.961,0,0,1-1.661.36.62.62,0,0,1-.736-.308C21.009,28.662,21.009,28.559,21.146,28.491Z"/><path class="l" d="M21.642,22.4a1.475,1.475,0,0,1,1.113.531.6.6,0,0,1,.086.137.263.263,0,0,1,0,.274c-.068.068-.154.051-.257.034a2.708,2.708,0,0,0-.651-.068,4.466,4.466,0,0,0-1.746.445,4.7,4.7,0,0,1-1.062.411.807.807,0,0,1-.531-.017c-.188-.086-.205-.205-.051-.342a.694.694,0,0,1,.154-.086,7.753,7.753,0,0,0,1.233-.668A5.274,5.274,0,0,1,21.4,22.43C21.505,22.413,21.574,22.413,21.642,22.4Z"/><path class="l" d="M34.141,23.508a4.8,4.8,0,0,0-.993.154.474.474,0,0,1-.154.017c-.086,0-.154-.017-.188-.086a.155.155,0,0,1,.034-.205,1.793,1.793,0,0,1,2.192-.479,3.739,3.739,0,0,1,.531.377A6.255,6.255,0,0,0,36.9,24.365c.154.068.137.171,0,.257-.154.1-.308.034-.462-.017a3.3,3.3,0,0,1-1.2-.719A1.7,1.7,0,0,0,34.141,23.508Z"/><path class="k" d="M35.442,28.371c-.1-.137.017-.205.086-.274a3.258,3.258,0,0,0,.582-.7,1.179,1.179,0,0,0,.086-1.164c-.171-.342-.086-.479.308-.479a4.175,4.175,0,0,0,.788.12c.394.051.479.188.377.565a2.541,2.541,0,0,1-1.044,1.472c-.086.068-.154.12-.24.188A1.95,1.95,0,0,1,35.442,28.371Z"/><path class="k" d="M13.9,23.868a9.017,9.017,0,0,0,.308,2.038c.034.154.017.291-.137.36s-.274-.017-.36-.154a6.743,6.743,0,0,1-.873-2.26c-.068-.325.017-.428.325-.531a3.852,3.852,0,0,1,.411-.137c.205-.034.308.051.325.257A3.567,3.567,0,0,1,13.9,23.868Z"/><path class="l" d="M16.985,23.731a.39.39,0,0,1-.411-.548,1.341,1.341,0,0,1,1.2-.942l.959-.1a.377.377,0,0,1,.24.034.194.194,0,0,1,.086.342.941.941,0,0,1-.154.12,15.927,15.927,0,0,0-1.558.976A.569.569,0,0,1,16.985,23.731Z"/><path class="l" d="M24.142,30.152A1.534,1.534,0,0,1,24.4,29.3a.59.59,0,0,1,.77-.154.2.2,0,0,1,.086.274,1.53,1.53,0,0,0-.017,1.284.474.474,0,0,1,.051.223c.034.308-.154.462-.445.342a1.078,1.078,0,0,1-.651-.8A.763.763,0,0,1,24.142,30.152Z"/><path class="l" d="M36.2,22.207a3.765,3.765,0,0,1,1.1.171.932.932,0,0,1,.668.822c-.017.377-.188.634-.634.394a4.366,4.366,0,0,1-.8-.582,4.5,4.5,0,0,0-.634-.5c-.068-.034-.137-.086-.12-.171s.086-.12.171-.137Z"/><path class="k" d="M27.549,58.934a3.858,3.858,0,0,1-.445,0c-.171-.017-.223-.12-.1-.24A5.805,5.805,0,0,0,27.96,57.1a.276.276,0,0,1,.068-.12.116.116,0,0,1,.1-.068c.051,0,.068.051.068.086.017.171.051.342.068.514.034.325.051.651.068.976s-.086.428-.411.445Z"/><path class="k" d="M15.256,22.738H14.81c-.137,0-.205-.034-.205-.188v-.188c-.068-.445.034-.394.377-.411.24,0,.462-.017.7-.034a.2.2,0,0,1,.24.188v.034c.034.634.068.548-.479.548h-.188Z"/><path class="k" d="M39.278,22.156h.462c.051,0,.12-.017.154.034.12.171.017.342,0,.514-.017.12-.12.154-.223.154-.291,0-.582,0-.856-.017a.244.244,0,0,1-.24-.274c0-.462,0-.462.462-.462h.24Q39.278,22.156,39.278,22.156Z"/><path class="m" d="M35.442,28.371c.308-.137.651-.154.959-.291a.851.851,0,0,0,.086.548c.051.137.171.154.308.137a2.271,2.271,0,0,1-.89.154.7.7,0,0,1-.5-.428C35.391,28.457,35.425,28.422,35.442,28.371Z"/><path class="n" d="M22.824,42.634c.086.034.188,0,.257.068h-7.5c.017-.034.017-.051.034-.086.051.068.12.051.188.051h6.832C22.7,42.668,22.772,42.685,22.824,42.634Z"/><path class="n" d="M23.474,42.7c.051-.017.12-.051.171-.068.068.068.137.034.223.034h2.089c0,.017,0,.034-.017.034Z"/><path class="o" d="M39.055,42.668a.131.131,0,0,1-.034.086c-.051-.051-.12-.034-.171-.034H36.9c.017-.034.051-.051.068-.086.068.068.137.034.205.034Z"/><path class="p" d="M39.791,42.7c-.017-.017-.017-.034-.034-.034h1.883c.068,0,.137.017.188-.034a.141.141,0,0,1,.086.086C41.23,42.7,40.511,42.7,39.791,42.7Z"/><path class="q" d="M1.233,52.41l-.1.051V50.886h.034V52.2C1.181,52.29,1.147,52.359,1.233,52.41Z"/><path class="r" d="M7.14,63.317a.166.166,0,0,1,.154-.017C7.243,63.368,7.191,63.317,7.14,63.317Z"/><path class="s" d="M46.794,68.282a.491.491,0,0,1-.462.5.464.464,0,0,1-.479-.462.472.472,0,0,1,.479-.5A.449.449,0,0,1,46.794,68.282Z"/><path class="t" d="M34.946,54.088a3.706,3.706,0,0,0,.137-.394c.034-.1.068-.154.188-.137.137.017.068.1.086.171v.5c0,.051,0,.1-.068.1s-.068-.051-.068-.1V53.8a2.018,2.018,0,0,0-.171.428c-.017.051-.034.086-.086.086-.068,0-.086-.034-.086-.086a2.193,2.193,0,0,0-.188-.411v.394c0,.051,0,.1-.068.1s-.068-.051-.068-.1v-.531c0-.051-.034-.137.086-.12.068,0,.154-.017.171.086A1.849,1.849,0,0,0,34.946,54.088Z"/><path class="u" d="M34.107,53.557h.223c.034,0,.086,0,.086.051s-.034.086-.068.068c-.205-.034-.171.1-.171.223a.825.825,0,0,1,0,.205c-.017.068.068.205-.086.205-.137,0-.051-.12-.068-.188a.825.825,0,0,1,0-.205c0-.12.034-.274-.188-.24-.034,0-.068-.017-.068-.051a.063.063,0,0,1,.068-.068Z"/><path class="v" d="M46.52,68.591c-.086-.034-.068-.1-.068-.154a.163.163,0,0,0-.171-.1c-.1,0-.086.068-.086.12s.017.1-.051.1-.051-.068-.051-.1v-.24c0-.24.154-.342.377-.24.051.017.068.051.086.1.051.1-.12.154-.051.24A.266.266,0,0,1,46.52,68.591Z"/><path class="w" d="M46.315,68.06c.068,0,.137.034.12.12s-.1.1-.171.1c-.1,0-.086-.068-.086-.12C46.178,68.043,46.246,68.043,46.315,68.06Z"/></g></g></svg>