<svg xmlns="http://www.w3.org/2000/svg" xmlns:xlink="http://www.w3.org/1999/xlink" width="24" height="24" viewBox="0 0 24 24"><defs><style>.a{fill:#0d366e;}.b{clip-path:url(#a);}</style><clipPath id="a"><rect class="a" width="24" height="24"/></clipPath></defs><g class="b"><path class="a" d="M1,8A1,1,0,0,0,2,7V3A1,1,0,0,1,3,2H7A1,1,0,1,0,7,0H3A3,3,0,0,0,0,3V7A1,1,0,0,0,1,8ZM1,8" transform="translate(0 0)"/><path class="a" d="M25.667,18.667a1,1,0,0,0-1,1v4a1,1,0,0,1-1,1h-4a1,1,0,1,0,0,2h4a3,3,0,0,0,3-3v-4a1,1,0,0,0-1-1Zm0,0" transform="translate(-2.667 -2.667)"/><path class="a" d="M7,24.667H3a1,1,0,0,1-1-1v-4a1,1,0,1,0-2,0v4a3,3,0,0,0,3,3H7a1,1,0,1,0,0-2Zm0,0" transform="translate(0 -2.667)"/><path class="a" d="M23.667,0h-4a1,1,0,1,0,0,2h4a1,1,0,0,1,1,1V7a1,1,0,1,0,2,0V3a3,3,0,0,0-3-3Zm0,0" transform="translate(-2.667 0)"/></g></svg>