<svg xmlns="http://www.w3.org/2000/svg" xmlns:xlink="http://www.w3.org/1999/xlink" width="80" height="80" viewBox="0 0 80 80"><defs><style>.a,.c{fill:#fff;}.a{stroke:#707070;}.b{clip-path:url(#a);}.c,.d{fill-rule:evenodd;}.d{fill:#b01842;}</style><clipPath id="a"><rect class="a" width="80" height="80" transform="translate(155 2846)"/></clipPath></defs><g class="b" transform="translate(-155 -2846)"><g transform="translate(155 2846)"><path class="c" d="M0,0H80V80H0Z"/><path class="d" d="M73.005,47.845c-.973-.508-1.123-1.944-1.1-5.434l.022-5.35-1.844,0,.414-.991h1.43V33.533l3.424-1.267v3.716l1.569,0-.414,1.1-1.154,0-.006,9.259a2.151,2.151,0,0,0,.683,1.505H73.005ZM39.358,24.966c.261.717.853,1.456.432,2.287a2.337,2.337,0,0,1-1.843,1.661,3.175,3.175,0,0,1-2.367-.6,5.869,5.869,0,0,1,2.446-6.03l1.331,2.685Z"/><path class="d" d="M42.754,32.383c-.438,1.473-4.79.506-6.155-1.911a3.625,3.625,0,0,0,3.845-3.2l2.31,5.108Zm1.781-.19a1.124,1.124,0,0,0,.7-.714L40.552,21.325a1.083,1.083,0,0,0-.938.216Zm2.1-2.2a5.78,5.78,0,0,0-3.976-8.658ZM76.277,52.259H1.176v.575h75.1ZM46.2,36.481a2.472,2.472,0,0,1,2.447-.2,2.094,2.094,0,0,1,.777.615l-1.38,2.145a2.652,2.652,0,0,0-.527-.313,1.733,1.733,0,0,0-1.819.251v6.259a3.518,3.518,0,0,0,.74,2.584H43.3a2.691,2.691,0,0,1-.878-2.007L42.4,37.49a1.837,1.837,0,0,0-.414-1.348l3.249.012c.264.188.276.514.413.765l.552-.439Zm3.964,2.057a4.065,4.065,0,0,0-.367-2.42H52.81a1.149,1.149,0,0,1,.376.64,2.26,2.26,0,0,1,.226.765l.025,8.868a3.165,3.165,0,0,0,.715,1.474l-3.224.007c-1.054-1.019-.708-2.7-.79-4.428Zm4.767.088c.326-.9,1.342-1.355,2.083-1.844,1.128-.414,2.37-1.443,3.637-.6A8.38,8.38,0,0,1,63.3,38.713a11.426,11.426,0,0,1,.352,1.317c0,.589.125,1.029.112,1.618a15.185,15.185,0,0,1,0,1.844,3.838,3.838,0,0,1-1.38,2.759c-1.255,1.116-2.836,2.383-4.541,1.517-1.531-.715-3.336-2.132-3.224-4.076a20.4,20.4,0,0,1,.063-3.913,3.2,3.2,0,0,1,.25-1.153ZM58.066,44.9c.151.551.44,1.229,1.1,1.3.389.012.678-.314.9-.589a9.461,9.461,0,0,0,.6-4.453c-.226-1.166.05-2.759-1.2-3.474-.44-.163-.778.138-1.054.414a4.652,4.652,0,0,0-.577,2.528,16.356,16.356,0,0,0,.225,4.271Zm7.928,2.947c-.972-.508-1.123-1.944-1.1-5.434l.022-5.35-1.844,0,.414-.991h1.43V33.533l3.425-1.267,0,3.716,1.569,0-.414,1.1-1.153,0-.007,9.259a2.155,2.155,0,0,0,.683,1.505H65.993ZM34.686,37.49a2.073,2.073,0,0,0-.414-1.348l3.249.012c.263.188.276.514.414.765l.552-.439a2.47,2.47,0,0,1,2.446-.2,2.09,2.09,0,0,1,.778.615l-1.38,2.145a2.641,2.641,0,0,0-.527-.313,1.733,1.733,0,0,0-1.819.251v6.259a3.512,3.512,0,0,0,.74,2.584H35.589a2.534,2.534,0,0,1-.878-2.007l-.025-8.322ZM10.113,40.783,8.926,43.212C8.12,44.645,6.989,46.4,5.254,46.839a4.428,4.428,0,0,1-1.914-.023L1.246,50.242a1.633,1.633,0,0,0,.593.391c3.683,1.406,5.166-.106,8.794-8.3l3.425,7.3h4.562l-2.155-4.925,1.22-2.547,3.37,7.36,4.366.028L17.781,32.755,14.262,34.5l2.758,6.266-1.209,2.463L10.756,32.321,7.048,34.21l3.065,6.572Zm14.024,2.96a3.657,3.657,0,0,1,1.882-2.972c1.116-.69,2.421-.966,3.575-1.568.2-.163.452-.364.464-.627a.674.674,0,0,0-.439-.69c-1.756-.376-3.211.728-4.491,1.819a9.721,9.721,0,0,1,.665-2.433c.188-.2.3-.476.552-.627a8.372,8.372,0,0,1,4.189-.69,3.063,3.063,0,0,1,2.584,1.932,5,5,0,0,1,.226,1.543l.013,6.8A2.9,2.9,0,0,0,34,47.845H30.747a2.294,2.294,0,0,1-.69-1.342c-.909.8-2.806,2-3.939,1.2a3.971,3.971,0,0,1-1.982-3.964Zm5.757-2.364c-.025-.47-.364-.52-.6-.52a2.729,2.729,0,0,0-1.819,1.43,3.458,3.458,0,0,0-.439,1.618,2.776,2.776,0,0,0,.188,1.4.958.958,0,0,0,.665.476,1.76,1.76,0,0,0,1.355-.3c.916-.515.752-1.543.765-2.459l-.113-1.649Zm48.5,4.886a.814.814,0,0,1,.245.59.825.825,0,0,1-.246.6.835.835,0,0,1-1.188,0,.846.846,0,0,1,0-1.192.805.805,0,0,1,.6-.254A.8.8,0,0,1,78.4,46.264Zm.127-.13a.984.984,0,0,0-.72-.3,1,1,0,0,0-.7.276.971.971,0,0,0-.318.742,1.018,1.018,0,1,0,1.739-.72Zm-.594.643a.279.279,0,0,1-.162.042h-.114v-.327h.071a.5.5,0,0,1,.172.024.129.129,0,0,1,.091.128.154.154,0,0,1-.058.134Zm-.276.245h.061l.065,0a.315.315,0,0,1,.1.018.135.135,0,0,1,.083.083.522.522,0,0,1,.018.139.768.768,0,0,0,.019.156h.281l-.01-.032a.239.239,0,0,1-.01-.066v-.1a.308.308,0,0,0-.1-.253A.382.382,0,0,0,78,46.9a.372.372,0,0,0,.2-.076.249.249,0,0,0,.079-.206.285.285,0,0,0-.151-.27.554.554,0,0,0-.222-.058l-.233,0h-.315v1.129h.3v-.4ZM1.246,55.083c.129.01.259.026.388.026s.259-.015.388-.026v1.4c.264.01.528.026.792.026s.528-.015.792-.026v-1.4c.129.01.259.026.388.026s.259-.015.388-.026v3.55c-.129-.01-.259-.026-.388-.026s-.259.016-.388.026V56.9c-.264-.01-.528-.026-.792-.026s-.528.015-.792.026v1.733c-.129-.01-.259-.026-.388-.026s-.259.016-.388.026v-3.55ZM7.313,58.7A1.747,1.747,0,0,1,5.4,56.852,1.861,1.861,0,0,1,7.437,54.99a1.754,1.754,0,0,1,1.915,1.842A1.885,1.885,0,0,1,7.313,58.7ZM6.257,57c0,.673.305,1.387,1.082,1.387.8,0,1.154-.8,1.154-1.656,0-.667-.31-1.433-1.087-1.433-.719,0-1.148.543-1.148,1.7Zm5.5,1.63c-.129-.01-.259-.026-.388-.026s-.259.016-.388.026V55.45a7.05,7.05,0,0,0-.962.073.953.953,0,0,0,0-.44h2.665a1.555,1.555,0,0,0-.026.217,1.6,1.6,0,0,0,.026.223,7.746,7.746,0,0,0-.926-.073v3.182h0Zm3.8-3.549a1.618,1.618,0,0,0-.026.222,1.681,1.681,0,0,0,.026.223,7.288,7.288,0,0,0-1.2-.072v1.112H14.9a4.74,4.74,0,0,0,.637-.046,1.618,1.618,0,0,0-.026.222,1.7,1.7,0,0,0,.026.223,4.727,4.727,0,0,0-.637-.047h-.538v1.315a9.68,9.68,0,0,0,1.2-.073,1.645,1.645,0,0,0-.026.223,1.685,1.685,0,0,0,.026.222H13.587V55.083h1.971Zm1.792,3.151a11.027,11.027,0,0,0,1.185-.073,1.645,1.645,0,0,0-.026.223,1.618,1.618,0,0,0,.026.222H16.573V55.082c.129.01.259.026.388.026s.259-.015.388-.026Zm3.8-2.484a.618.618,0,0,0-.6-.45c-.409,0-.569.212-.569.508,0,.7,1.573.569,1.573,1.754A1.223,1.223,0,0,1,20.187,58.7a1.576,1.576,0,0,1-.833-.222,4.8,4.8,0,0,0,.15-.657h.1a.7.7,0,0,0,.714.569.546.546,0,0,0,.606-.538c0-.828-1.542-.528-1.542-1.774a1.075,1.075,0,0,1,1.2-1.087,1.347,1.347,0,0,1,.818.248c-.062.166-.114.337-.166.512H21.15Zm4.634.916a.663.663,0,0,1-.664.66.66.66,0,1,1,0-1.32A.663.663,0,0,1,25.784,56.666Zm2.559-1.583h1.1a2.079,2.079,0,0,1,.838.1.773.773,0,0,1,.45.741.924.924,0,0,1-.807.931c.285.5.606.973.916,1.454l.2.32c-.155-.01-.31-.026-.471-.026s-.31.016-.466.026l-.616-1.086c-.078-.14-.222-.378-.337-.575h-.036v1.661c-.129-.01-.259-.026-.388-.026s-.259.016-.388.026V55.083Zm.777,1.666a.654.654,0,0,0,.812-.74,1.316,1.316,0,0,0-.026-.259c-.083-.429-.471-.388-.786-.388v1.387Zm4.761-1.666a1.617,1.617,0,0,0-.026.222,1.681,1.681,0,0,0,.026.223,7.284,7.284,0,0,0-1.2-.072v1.112h.538a4.734,4.734,0,0,0,.637-.046,1.618,1.618,0,0,0-.026.222,1.7,1.7,0,0,0,.026.223,4.727,4.727,0,0,0-.637-.047h-.538v1.315a9.685,9.685,0,0,0,1.2-.073,1.644,1.644,0,0,0-.026.223,1.685,1.685,0,0,0,.026.222H31.909V55.083h1.971Zm2.615.667a.619.619,0,0,0-.6-.45c-.409,0-.569.212-.569.508,0,.7,1.573.569,1.573,1.754A1.223,1.223,0,0,1,35.533,58.7a1.576,1.576,0,0,1-.833-.222,4.8,4.8,0,0,0,.15-.657h.1a.7.7,0,0,0,.714.569.546.546,0,0,0,.605-.538c0-.828-1.542-.528-1.542-1.774a1.075,1.075,0,0,1,1.2-1.087,1.346,1.346,0,0,1,.818.248c-.062.166-.114.337-.166.512H36.5Zm3.06,2.95a1.747,1.747,0,0,1-1.915-1.847A1.861,1.861,0,0,1,39.68,54.99a1.753,1.753,0,0,1,1.915,1.842A1.884,1.884,0,0,1,39.556,58.7ZM38.5,57c0,.673.305,1.387,1.081,1.387.8,0,1.155-.8,1.155-1.656,0-.667-.311-1.433-1.087-1.433-.719,0-1.148.543-1.148,1.7Zm4.048-1.92h1.1a2.079,2.079,0,0,1,.838.1.773.773,0,0,1,.45.741.924.924,0,0,1-.807.931c.285.5.606.973.916,1.454l.2.32c-.155-.01-.31-.026-.471-.026s-.31.016-.465.026L43.7,57.546c-.078-.14-.222-.378-.337-.575h-.037v1.661c-.129-.01-.259-.026-.388-.026s-.259.016-.388.026V55.083Zm.776,1.666a.655.655,0,0,0,.813-.74,1.383,1.383,0,0,0-.026-.259c-.083-.429-.471-.388-.787-.388v1.387h0Zm4.229,1.883c-.129-.01-.259-.026-.388-.026s-.259.016-.388.026V55.45a7.046,7.046,0,0,0-.963.073.953.953,0,0,0,0-.44h2.665a.953.953,0,0,0,0,.44,7.739,7.739,0,0,0-.926-.073Zm3.437-2.882a.617.617,0,0,0-.6-.45c-.408,0-.569.212-.569.508,0,.7,1.573.569,1.573,1.754A1.223,1.223,0,0,1,50.026,58.7a1.577,1.577,0,0,1-.833-.222,4.735,4.735,0,0,0,.15-.657h.1a.7.7,0,0,0,.714.569.545.545,0,0,0,.6-.538c0-.828-1.542-.528-1.542-1.774a1.075,1.075,0,0,1,1.2-1.087,1.345,1.345,0,0,1,.817.248c-.061.166-.113.337-.165.512h-.078Zm4.634.916a.662.662,0,0,1-.664.66.66.66,0,1,1,0-1.32A.662.662,0,0,1,55.623,56.666Zm4.185-.916a.618.618,0,0,0-.6-.45c-.409,0-.57.212-.57.508,0,.7,1.573.569,1.573,1.754A1.223,1.223,0,0,1,58.845,58.7a1.579,1.579,0,0,1-.833-.222,4.861,4.861,0,0,0,.151-.657h.1a.7.7,0,0,0,.714.569.546.546,0,0,0,.606-.538c0-.828-1.543-.528-1.543-1.774a1.075,1.075,0,0,1,1.2-1.087,1.348,1.348,0,0,1,.818.248c-.062.166-.114.337-.165.512h-.078Zm1.424-.667c.129.01.259.026.388.026s.259-.015.388-.026v1.47a6.844,6.844,0,0,0,.036.977.945.945,0,0,0,.275.6.823.823,0,0,0,.589.222.867.867,0,0,0,.922-.626,4.066,4.066,0,0,0,.093-1.072V55.083a1.385,1.385,0,0,0,.413,0v1.842c-.015.589-.01,1.128-.548,1.5a1.671,1.671,0,0,1-.978.274,1.4,1.4,0,0,1-1.5-.869,2.417,2.417,0,0,1-.083-.636V55.083h0Zm4.426,0c.129.01.259.026.388.026s.259-.015.388-.026v3.55c-.129-.01-.259-.026-.388-.026s-.259.016-.388.026Zm3.483,3.549c-.129-.01-.259-.026-.388-.026s-.259.016-.388.026V55.45a7.043,7.043,0,0,0-.962.073.953.953,0,0,0,0-.44h2.665a1.69,1.69,0,0,0-.025.217,1.6,1.6,0,0,0,.025.223,7.725,7.725,0,0,0-.926-.073Zm3.8-3.549a.975.975,0,0,0,0,.445,7.3,7.3,0,0,0-1.2-.072v1.112h.538a4.728,4.728,0,0,0,.636-.046.974.974,0,0,0,0,.445,4.724,4.724,0,0,0-.636-.047h-.538v1.315a9.7,9.7,0,0,0,1.2-.073,1.645,1.645,0,0,0-.026.223,1.618,1.618,0,0,0,.026.222H70.967V55.083h1.972Zm2.614.667a.617.617,0,0,0-.6-.45c-.408,0-.569.212-.569.508,0,.7,1.573.569,1.573,1.754A1.223,1.223,0,0,1,74.591,58.7a1.577,1.577,0,0,1-.833-.222,4.734,4.734,0,0,0,.15-.657h.1a.7.7,0,0,0,.713.569.546.546,0,0,0,.606-.538c0-.828-1.542-.528-1.542-1.774a1.075,1.075,0,0,1,1.2-1.087,1.345,1.345,0,0,1,.817.248c-.061.166-.113.337-.165.512h-.078Z"/></g></g></svg>